<svg xmlns="http://www.w3.org/2000/svg" xmlns:xlink="http://www.w3.org/1999/xlink" fill="none" version="1.1" width="11.898750066757202" height="12.862033605575562" viewBox="0 0 11.898750066757202 12.862033605575562"><g style="mix-blend-mode:passthrough"><path d="M2.692129976158142,2.180629976158142Q3.003049976158142,2.180629976158142,3.064159976158142,1.875489976158142L3.2159799761581422,1.115749976158142Q3.220059976158142,1.095336976158142,3.225439976158142,1.075225976158142Q3.512929976158142,-2.384185793236071e-8,4.626499976158142,-2.384185793236071e-8L7.272129976158142,-2.384185793236071e-8Q8.385699976158142,-2.384185793236071e-8,8.673189976158142,1.075225976158142Q8.678569976158142,1.095336976158142,8.682649976158142,1.115749976158142L8.834519976158141,1.875749976158142Q8.895579976158142,2.180629976158142,9.206499976158142,2.180629976158142Q9.270519976158143,2.180629976158142,9.333309976158143,2.193109976158142Q9.396099976158142,2.205599976158142,9.455239976158142,2.230099976158142Q9.514389976158142,2.254599976158142,9.567619976158142,2.290169976158142Q9.620849976158143,2.3257399761581423,9.666119976158143,2.371009976158142Q9.711389976158141,2.416269976158142,9.746959976158141,2.4694999761581418Q9.782519976158142,2.522729976158142,9.807019976158141,2.581879976158142Q9.831519976158143,2.6410299761581424,9.844009976158143,2.703819976158142Q9.856499976158142,2.766609976158142,9.856499976158142,2.830629976158142Q9.856499976158142,2.894639976158142,9.844009976158143,2.957429976158142Q9.831519976158143,3.0202199761581423,9.807019976158141,3.079369976158142Q9.782519976158142,3.138519976158142,9.746949976158142,3.191749976158142Q9.711389976158141,3.244979976158142,9.666119976158143,3.290239976158142Q9.620849976158143,3.335509976158142,9.567619976158142,3.3710799761581423Q9.514389976158142,3.406649976158142,9.455239976158142,3.431149976158142Q9.396099976158142,3.455649976158142,9.333309976158143,3.468139976158142Q9.270519976158143,3.4806199761581422,9.206499976158142,3.4806299761581423Q7.830109976158142,3.4806299761581423,7.559729976158142,2.1304999761581422L7.4078499761581424,1.370499976158142L8.045249976158143,1.2431249761581422L7.417309976158142,1.411023976158142Q7.387629976158142,1.299999976158142,7.272129976158142,1.299999976158142L4.626499976158142,1.299999976158142Q4.510999976158143,1.299999976158142,4.481319976158142,1.411023976158142L3.853379976158142,1.2431249761581422L4.490769976158142,1.370499976158142L4.3388499761581425,2.130759976158142Q4.068519976158142,3.4806299761581423,2.692129976158142,3.4806299761581423Q2.628109976158142,3.4806199761581422,2.565319976158142,3.468139976158142Q2.502529976158142,3.455649976158142,2.443379976158142,3.431149976158142Q2.384239976158142,3.406649976158142,2.3310099761581418,3.3710799761581423Q2.277779976158142,3.335509976158142,2.232509976158142,3.290239976158142Q2.187239976158142,3.244979976158142,2.151669976158142,3.191749976158142Q2.116099976158142,3.138519976158142,2.091609976158142,3.079369976158142Q2.067109976158142,3.0202199761581423,2.054619976158142,2.957429976158142Q2.042129976158142,2.894639976158142,2.042129976158142,2.830629976158142Q2.042129976158142,2.766609976158142,2.054619976158142,2.703819976158142Q2.067109976158142,2.6410299761581424,2.091609976158142,2.581879976158142Q2.116099976158142,2.522729976158142,2.151669976158142,2.4694999761581418Q2.187239976158142,2.416269976158142,2.232509976158142,2.371009976158142Q2.277779976158142,2.3257399761581423,2.3310099761581418,2.290169976158142Q2.384239976158142,2.254599976158142,2.443379976158142,2.230099976158142Q2.502529976158142,2.205599976158142,2.565319976158142,2.193109976158142Q2.628109976158142,2.180629976158142,2.692129976158142,2.180629976158142ZM0.6499999761581421,2.180639976158142L11.248799976158143,2.180639976158142Q11.312799976158143,2.180639976158142,11.375599976158142,2.1931299761581418Q11.438299976158142,2.2056199761581423,11.497499976158142,2.230119976158142Q11.556599976158141,2.254619976158142,11.609899976158141,2.290179976158142Q11.663099976158142,2.325749976158142,11.708399976158143,2.3710199761581423Q11.753599976158142,2.416289976158142,11.789199976158143,2.469519976158142Q11.824799976158141,2.522749976158142,11.849299976158141,2.581899976158142Q11.873799976158143,2.641039976158142,11.886299976158142,2.703829976158142Q11.898699976158142,2.7666199761581423,11.898699976158142,2.830639976158142Q11.898699976158142,2.894659976158142,11.886299976158142,2.957449976158142Q11.873799976158143,3.020239976158142,11.849299976158141,3.079379976158142Q11.824799976158141,3.138529976158142,11.789199976158143,3.191759976158142Q11.753599976158142,3.244989976158142,11.708399976158143,3.290259976158142Q11.663099976158142,3.335529976158142,11.609899976158141,3.371089976158142Q11.556599976158141,3.406659976158142,11.497499976158142,3.431159976158142Q11.438299976158142,3.455659976158142,11.375599976158142,3.4681499761581422Q11.312799976158143,3.480639976158142,11.248799976158143,3.480639976158142L0.6499999761581421,3.480639976158142Q0.585980576158142,3.480639976158142,0.5231909761581421,3.4681499761581422Q0.4604019761581421,3.455659976158142,0.4012559761581421,3.431159976158142Q0.3421099761581421,3.406659976158142,0.28887897615814206,3.371089976158142Q0.23564897615814206,3.335529976158142,0.1903809761581421,3.290259976158142Q0.1451119761581421,3.244989976158142,0.10954497615814207,3.191759976158142Q0.07397797615814206,3.138529976158142,0.04947797615814209,3.079379976158142Q0.02497897615814204,3.020239976158142,0.012489976158142069,2.957449976158142Q-2.384185793236071e-8,2.894659976158142,-2.384185793236071e-8,2.830639976158142Q-2.384185793236071e-8,2.7666199761581423,0.012489976158142069,2.703829976158142Q0.02497897615814204,2.641039976158142,0.04947797615814209,2.581899976158142Q0.07397797615814206,2.522749976158142,0.10954497615814207,2.469519976158142Q0.1451119761581421,2.416289976158142,0.1903809761581421,2.3710199761581423Q0.23564897615814206,2.325749976158142,0.28887897615814206,2.290179976158142Q0.3421099761581421,2.254619976158142,0.4012559761581421,2.230119976158142Q0.4604019761581421,2.2056199761581423,0.5231909761581421,2.1931299761581418Q0.585980576158142,2.180639976158142,0.6499999761581421,2.180639976158142ZM2.162719976158142,4.796349976158142Q2.499439976158142,8.984719976158143,2.696489976158142,10.763799976158142Q2.7802399761581422,11.522099976158142,3.494369976158142,11.536699976158141Q5.816099976158142,11.585699976158143,8.362479976158141,11.539799976158141Q9.117019976158142,11.525999976158142,9.201889976158142,10.759399976158143Q9.397479976158142,8.997829976158142,9.736289976158142,4.796209976158142L9.736289976158142,4.796199976158142Q9.741429976158143,4.732389976158142,9.758929976158143,4.670809976158142Q9.776419976158142,4.609219976158142,9.805599976158142,4.552239976158142Q9.834769976158142,4.495249976158142,9.874499976158143,4.445049976158142Q9.914229976158142,4.394849976158142,9.962989976158141,4.353369976158142Q10.011749976158143,4.311879976158142,10.067669976158141,4.280709976158143Q10.123579976158142,4.249529976158142,10.184509976158141,4.229869976158142Q10.245429976158142,4.210199976158142,10.309019976158142,4.202799976158142Q10.372609976158142,4.195399976158142,10.436419976158142,4.200539976158142Q10.500239976158142,4.205679976158143,10.561819976158143,4.223179976158142Q10.623399976158142,4.2406699761581415,10.680399976158142,4.269849976158142Q10.737399976158143,4.299019976158142,10.787599976158143,4.338749976158143Q10.837799976158141,4.378479976158141,10.879299976158142,4.427239976158142Q10.920699976158142,4.475999976158143,10.951899976158142,4.531919976158142Q10.983099976158142,4.587829976158142,11.002799976158142,4.648759976158142Q11.022399976158143,4.709679976158142,11.029799976158142,4.773269976158142Q11.037199976158142,4.836859976158142,11.032099976158142,4.9006699761581425L11.032099976158142,4.900699976158142Q10.691699976158143,9.121869976158141,10.493989976158142,10.902499976158142Q10.283379976158143,12.804999976158141,8.385899976158143,12.839599976158143Q5.8140999761581424,12.885899976158143,3.467759976158142,12.836399976158143Q1.613302976158142,12.798499976158142,1.404388976158142,10.906899976158142Q1.2051869761581422,9.108399976158141,0.8669039761581421,4.900519976158142Q0.8617739761581421,4.836709976158142,0.8691919761581421,4.773119976158142Q0.8766089761581422,4.709529976158142,0.8962899761581421,4.648619976158142Q0.915970976158142,4.587699976158142,0.9471579761581421,4.531789976158143Q0.9783449761581421,4.475879976158142,1.0198409761581422,4.427129976158142Q1.061335976158142,4.378379976158142,1.1115449761581422,4.338659976158143Q1.1617539761581421,4.298939976158142,1.2187469761581422,4.2697799761581425Q1.275739976158142,4.240619976158142,1.3373259761581422,4.2231399761581425Q1.398912976158142,4.205659976158142,1.4627259761581421,4.200529976158142Q1.526539976158142,4.195399976158142,1.5901279761581422,4.202819976158143Q1.653719976158142,4.210229976158142,1.7146399761581421,4.229909976158142Q1.7755499761581421,4.249589976158142,1.831459976158142,4.280779976158142Q1.8873699761581422,4.311969976158142,1.936119976158142,4.353459976158142Q1.984869976158142,4.394959976158142,2.024589976158142,4.445169976158143Q2.064309976158142,4.4953799761581426,2.093469976158142,4.5523699761581415Q2.122629976158142,4.609359976158142,2.140109976158142,4.670949976158142Q2.157589976158142,4.732539976158142,2.162719976158142,4.796349976158142ZM3.3421299761581422,2.830629976158142Q3.3421299761581422,2.894639976158142,3.329639976158142,2.957429976158142Q3.317149976158142,3.0202199761581423,3.2926499761581423,3.079369976158142Q3.268149976158142,3.138519976158142,3.232579976158142,3.191749976158142Q3.1970099761581423,3.244979976158142,3.151749976158142,3.290239976158142Q3.106479976158142,3.335509976158142,3.053249976158142,3.3710799761581423Q3.0000199761581423,3.406649976158142,2.940869976158142,3.431149976158142Q2.8817199761581422,3.455649976158142,2.818939976158142,3.468139976158142Q2.756149976158142,3.4806199761581422,2.692129976158142,3.4806299761581423Q2.628109976158142,3.4806199761581422,2.565319976158142,3.468139976158142Q2.502529976158142,3.455649976158142,2.443379976158142,3.431149976158142Q2.384239976158142,3.406649976158142,2.3310099761581418,3.3710799761581423Q2.277779976158142,3.335509976158142,2.232509976158142,3.290239976158142Q2.187239976158142,3.244979976158142,2.151669976158142,3.191749976158142Q2.116099976158142,3.138519976158142,2.091609976158142,3.079369976158142Q2.067109976158142,3.0202199761581423,2.054619976158142,2.957429976158142Q2.042129976158142,2.894639976158142,2.042129976158142,2.830629976158142Q2.042129976158142,2.766609976158142,2.054619976158142,2.703819976158142Q2.067109976158142,2.6410299761581424,2.091609976158142,2.581879976158142Q2.116099976158142,2.522729976158142,2.151669976158142,2.4694999761581418Q2.187239976158142,2.416269976158142,2.232509976158142,2.371009976158142Q2.277779976158142,2.3257399761581423,2.3310099761581418,2.290169976158142Q2.384239976158142,2.254599976158142,2.443379976158142,2.230099976158142Q2.502529976158142,2.205599976158142,2.565319976158142,2.193109976158142Q2.628109976158142,2.180629976158142,2.692129976158142,2.180629976158142Q2.756149976158142,2.180629976158142,2.818939976158142,2.193109976158142Q2.8817199761581422,2.205599976158142,2.940869976158142,2.230099976158142Q3.0000199761581423,2.254599976158142,3.053249976158142,2.290169976158142Q3.106479976158142,2.3257399761581423,3.151749976158142,2.371009976158142Q3.1970099761581423,2.416269976158142,3.232579976158142,2.4694999761581418Q3.268149976158142,2.522729976158142,3.2926499761581423,2.581879976158142Q3.317149976158142,2.6410299761581424,3.329639976158142,2.703819976158142Q3.3421299761581422,2.766609976158142,3.3421299761581422,2.830629976158142ZM9.856499976158142,2.830629976158142Q9.856499976158142,2.894639976158142,9.844009976158143,2.957429976158142Q9.831519976158143,3.0202199761581423,9.807019976158141,3.079369976158142Q9.782519976158142,3.138519976158142,9.746949976158142,3.191749976158142Q9.711389976158141,3.244979976158142,9.666119976158143,3.290239976158142Q9.620849976158143,3.335509976158142,9.567619976158142,3.3710799761581423Q9.514389976158142,3.406649976158142,9.455239976158142,3.431149976158142Q9.396099976158142,3.455649976158142,9.333309976158143,3.468139976158142Q9.270519976158143,3.4806199761581422,9.206499976158142,3.4806299761581423Q9.142479976158143,3.4806199761581422,9.079689976158143,3.468139976158142Q9.016899976158141,3.455649976158142,8.957749976158143,3.431149976158142Q8.898609976158141,3.406649976158142,8.845379976158142,3.3710799761581423Q8.792149976158143,3.335509976158142,8.746879976158143,3.290239976158142Q8.701609976158142,3.244979976158142,8.666039976158142,3.191749976158142Q8.630479976158142,3.138519976158142,8.605979976158142,3.079369976158142Q8.581479976158143,3.0202199761581423,8.568989976158143,2.957429976158142Q8.556499976158143,2.894639976158142,8.556499976158143,2.830629976158142Q8.556499976158143,2.766609976158142,8.568989976158143,2.703819976158142Q8.581479976158143,2.6410299761581424,8.605979976158142,2.581879976158142Q8.630479976158142,2.522729976158142,8.666039976158142,2.4694999761581418Q8.701609976158142,2.416269976158142,8.746879976158143,2.371009976158142Q8.792149976158143,2.3257399761581423,8.845379976158142,2.290169976158142Q8.898609976158141,2.254599976158142,8.957759976158142,2.230099976158142Q9.016899976158141,2.205599976158142,9.079689976158143,2.193109976158142Q9.142479976158143,2.180629976158142,9.206499976158142,2.180629976158142Q9.270519976158143,2.180629976158142,9.333309976158143,2.193109976158142Q9.396099976158142,2.205599976158142,9.455239976158142,2.230099976158142Q9.514389976158142,2.254599976158142,9.567619976158142,2.290169976158142Q9.620849976158143,2.3257399761581423,9.666119976158143,2.371009976158142Q9.711389976158141,2.416269976158142,9.746959976158141,2.4694999761581418Q9.782519976158142,2.522729976158142,9.807019976158141,2.581879976158142Q9.831519976158143,2.6410299761581424,9.844009976158143,2.703819976158142Q9.856499976158142,2.766609976158142,9.856499976158142,2.830629976158142ZM1.299999976158142,2.830639976158142Q1.299999976158142,2.894659976158142,1.287509976158142,2.957449976158142Q1.2750209761581421,3.020239976158142,1.250521976158142,3.079379976158142Q1.2260219761581421,3.138529976158142,1.1904549761581422,3.191759976158142Q1.154887976158142,3.244989976158142,1.109618976158142,3.290259976158142Q1.064350976158142,3.335529976158142,1.0111209761581421,3.371089976158142Q0.9578899761581421,3.406659976158142,0.898743976158142,3.431159976158142Q0.839597976158142,3.455659976158142,0.776808976158142,3.4681499761581422Q0.7140193761581421,3.480639976158142,0.6499999761581421,3.480639976158142Q0.585980576158142,3.480639976158142,0.5231909761581421,3.4681499761581422Q0.4604019761581421,3.455659976158142,0.4012559761581421,3.431159976158142Q0.3421099761581421,3.406659976158142,0.28887897615814206,3.371089976158142Q0.23564897615814206,3.335529976158142,0.1903809761581421,3.290259976158142Q0.1451119761581421,3.244989976158142,0.10954497615814207,3.191759976158142Q0.07397797615814206,3.138529976158142,0.04947797615814209,3.079379976158142Q0.02497897615814204,3.020239976158142,0.012489976158142069,2.957449976158142Q-2.384185793236071e-8,2.894659976158142,-2.384185793236071e-8,2.830639976158142Q-2.384185793236071e-8,2.7666199761581423,0.012489976158142069,2.703829976158142Q0.02497897615814204,2.641039976158142,0.04947797615814209,2.581899976158142Q0.07397797615814206,2.522749976158142,0.10954497615814207,2.469519976158142Q0.1451119761581421,2.416289976158142,0.1903809761581421,2.3710199761581423Q0.23564897615814206,2.325749976158142,0.28887897615814206,2.290179976158142Q0.3421099761581421,2.254619976158142,0.4012559761581421,2.230119976158142Q0.4604019761581421,2.2056199761581423,0.5231909761581421,2.1931299761581418Q0.585980576158142,2.180639976158142,0.6499999761581421,2.180639976158142Q0.7140193761581421,2.180639976158142,0.776808976158142,2.1931299761581418Q0.839597976158142,2.2056199761581423,0.898743976158142,2.230119976158142Q0.9578899761581421,2.254619976158142,1.0111209761581421,2.290179976158142Q1.064350976158142,2.325749976158142,1.109618976158142,2.3710199761581423Q1.154887976158142,2.416289976158142,1.1904549761581422,2.469519976158142Q1.2260219761581421,2.522749976158142,1.250521976158142,2.581899976158142Q1.2750209761581421,2.641039976158142,1.287509976158142,2.703829976158142Q1.299999976158142,2.7666199761581423,1.299999976158142,2.830639976158142ZM11.898699976158142,2.830639976158142Q11.898699976158142,2.894659976158142,11.886299976158142,2.957449976158142Q11.873799976158143,3.020239976158142,11.849299976158141,3.079379976158142Q11.824799976158141,3.138529976158142,11.789199976158143,3.191759976158142Q11.753599976158142,3.244989976158142,11.708399976158143,3.290259976158142Q11.663099976158142,3.335529976158142,11.609899976158141,3.371089976158142Q11.556599976158141,3.406659976158142,11.497499976158142,3.431159976158142Q11.438299976158142,3.455659976158142,11.375599976158142,3.4681499761581422Q11.312799976158143,3.480639976158142,11.248799976158143,3.480639976158142Q11.184699976158143,3.480639976158142,11.121899976158142,3.4681499761581422Q11.059199976158142,3.455659976158142,10.999999976158142,3.431159976158142Q10.940899976158143,3.406659976158142,10.887599976158143,3.371089976158142Q10.834399976158142,3.335529976158142,10.789099976158141,3.290259976158142Q10.743899976158142,3.244989976158142,10.708299976158141,3.191759976158142Q10.672699976158142,3.138529976158142,10.648229976158142,3.079379976158142Q10.623729976158142,3.020239976158142,10.611239976158142,2.957449976158142Q10.598749976158143,2.894659976158142,10.598749976158143,2.830639976158142Q10.598749976158143,2.7666199761581423,10.611239976158142,2.703829976158142Q10.623729976158142,2.641039976158142,10.648229976158142,2.581899976158142Q10.672699976158142,2.522749976158142,10.708299976158141,2.469519976158142Q10.743899976158142,2.416289976158142,10.789099976158141,2.3710199761581423Q10.834399976158142,2.325749976158142,10.887599976158143,2.290179976158142Q10.940899976158143,2.254619976158142,10.999999976158142,2.230119976158142Q11.059199976158142,2.2056199761581423,11.121899976158142,2.1931299761581418Q11.184699976158143,2.180639976158142,11.248799976158143,2.180639976158142Q11.312799976158143,2.180639976158142,11.375599976158142,2.1931299761581418Q11.438299976158142,2.2056199761581423,11.497499976158142,2.230119976158142Q11.556599976158141,2.254619976158142,11.609899976158141,2.290179976158142Q11.663099976158142,2.325749976158142,11.708399976158143,2.3710199761581423Q11.753599976158142,2.416289976158142,11.789199976158143,2.469519976158142Q11.824799976158141,2.522749976158142,11.849299976158141,2.581899976158142Q11.873799976158143,2.641039976158142,11.886299976158142,2.703829976158142Q11.898699976158142,2.7666199761581423,11.898699976158142,2.830639976158142ZM2.164809976158142,4.848439976158142Q2.164809976158142,4.912459976158142,2.152319976158142,4.975249976158142Q2.139829976158142,5.038029976158142,2.1153399761581424,5.0971799761581424Q2.0908399761581418,5.156329976158142,2.055269976158142,5.209559976158142Q2.019699976158142,5.2627899761581425,1.974429976158142,5.308059976158142Q1.9291599761581422,5.353329976158142,1.875929976158142,5.388889976158142Q1.8226999761581422,5.4244599761581425,1.7635599761581422,5.448959976158142Q1.7044099761581422,5.473459976158142,1.641621976158142,5.4859499761581425Q1.578832976158142,5.498439976158142,1.514813976158142,5.498439976158142Q1.450793976158142,5.498439976158142,1.3880049761581421,5.4859499761581425Q1.3252149761581422,5.473459976158142,1.266068976158142,5.448959976158142Q1.206922976158142,5.4244599761581425,1.153692976158142,5.388889976158142Q1.1004629761581421,5.353319976158142,1.0551939761581421,5.308059976158142Q1.009925976158142,5.2627899761581425,0.974357976158142,5.209559976158142Q0.9387909761581421,5.156329976158142,0.9142919761581421,5.0971799761581424Q0.8897929761581421,5.038029976158142,0.8773029761581421,4.975249976158142Q0.8648139761581422,4.912459976158142,0.8648139761581422,4.848439976158142Q0.8648139761581422,4.7844199761581425,0.8773029761581421,4.721629976158142Q0.8897929761581421,4.658839976158142,0.9142919761581421,4.5996899761581425Q0.9387909761581421,4.540549976158142,0.974357976158142,4.487319976158142Q1.009925976158142,4.434089976158142,1.0551939761581421,4.388819976158143Q1.1004629761581421,4.343549976158142,1.153692976158142,4.307979976158142Q1.206922976158142,4.272409976158142,1.266068976158142,4.247919976158142Q1.3252149761581422,4.223419976158143,1.3880049761581421,4.210929976158142Q1.450793976158142,4.1984399761581415,1.514813976158142,4.1984399761581415Q1.578832976158142,4.1984399761581415,1.641621976158142,4.210929976158142Q1.7044099761581422,4.223419976158143,1.7635599761581422,4.247919976158142Q1.8226999761581422,4.272409976158142,1.875929976158142,4.307979976158142Q1.9291599761581422,4.343549976158142,1.974429976158142,4.388819976158143Q2.019699976158142,4.434089976158142,2.055269976158142,4.487319976158142Q2.0908399761581418,4.540549976158142,2.1153399761581424,4.5996899761581425Q2.139829976158142,4.658839976158142,2.152319976158142,4.721629976158142Q2.164809976158142,4.7844199761581425,2.164809976158142,4.848439976158142ZM11.034199976158142,4.848439976158142Q11.034199976158142,4.912459976158142,11.021699976158143,4.975249976158142Q11.009199976158142,5.038029976158142,10.984699976158142,5.0971799761581424Q10.960199976158142,5.156329976158142,10.924599976158142,5.209559976158142Q10.889099976158143,5.2627899761581425,10.843799976158142,5.308059976158142Q10.798499976158142,5.353329976158142,10.745299976158142,5.388889976158142Q10.692099976158142,5.4244599761581425,10.632929976158142,5.448959976158142Q10.573779976158143,5.473459976158142,10.510999976158143,5.4859499761581425Q10.448209976158141,5.498439976158142,10.384189976158142,5.498439976158142Q10.320169976158143,5.498439976158142,10.257379976158141,5.4859499761581425Q10.194589976158142,5.473459976158142,10.135439976158143,5.448959976158142Q10.076299976158142,5.4244599761581425,10.023069976158142,5.388889976158142Q9.969839976158141,5.353319976158142,9.924569976158143,5.308059976158142Q9.879299976158142,5.2627899761581425,9.843729976158142,5.209559976158142Q9.808159976158143,5.156329976158142,9.783669976158142,5.0971799761581424Q9.759169976158143,5.038029976158142,9.746679976158141,4.975249976158142Q9.734189976158142,4.912459976158142,9.734189976158142,4.848439976158142Q9.734189976158142,4.7844199761581425,9.746679976158141,4.721629976158142Q9.759169976158143,4.658839976158142,9.783669976158142,4.5996899761581425Q9.808159976158143,4.540549976158142,9.843729976158142,4.487319976158142Q9.879299976158142,4.434089976158142,9.924569976158143,4.388819976158143Q9.969839976158141,4.343549976158142,10.023069976158142,4.307979976158142Q10.076299976158142,4.272409976158142,10.135439976158143,4.247919976158142Q10.194589976158142,4.223419976158143,10.257379976158141,4.210929976158142Q10.320169976158143,4.1984399761581415,10.384189976158142,4.1984399761581415Q10.448209976158141,4.1984399761581415,10.510999976158143,4.210929976158142Q10.573779976158143,4.223419976158143,10.632929976158142,4.247919976158142Q10.692099976158142,4.272409976158142,10.745299976158142,4.307979976158142Q10.798499976158142,4.343549976158142,10.843799976158142,4.388819976158143Q10.889099976158143,4.434089976158142,10.924599976158142,4.487319976158142Q10.960199976158142,4.540549976158142,10.984699976158142,4.5996899761581425Q11.009199976158142,4.658839976158142,11.021699976158143,4.721629976158142Q11.034199976158142,4.7844199761581425,11.034199976158142,4.848439976158142Z" fill="#8F959E" fill-opacity="1"/></g></svg>