<svg xmlns="http://www.w3.org/2000/svg" xmlns:xlink="http://www.w3.org/1999/xlink" fill="none" version="1.1" width="11.08329963684082" height="11.08329963684082" viewBox="0 0 11.08329963684082 11.08329963684082"><g style="mix-blend-mode:passthrough"><path d="M4.95832,4.95832C4.95832,4.95832,4.95832,0,4.95832,0C4.95832,0,6.12498,0,6.12498,0C6.12498,0,6.12498,4.95832,6.12498,4.95832C6.12498,4.95832,11.0833,4.95832,11.0833,4.95832C11.0833,4.95832,11.0833,6.12498,11.0833,6.12498C11.0833,6.12498,6.12498,6.12498,6.12498,6.12498C6.12498,6.12498,6.12498,11.0833,6.12498,11.0833C6.12498,11.0833,4.95832,11.0833,4.95832,11.0833C4.95832,11.0833,4.95832,6.12498,4.95832,6.12498C4.95832,6.12498,0,6.12498,0,6.12498C0,6.12498,0,4.95832,0,4.95832C0,4.95832,4.95832,4.95832,4.95832,4.95832C4.95832,4.95832,4.95832,4.95832,4.95832,4.95832Z" fill-rule="evenodd" fill="#4E5969" fill-opacity="1"/></g></svg>