<svg xmlns="http://www.w3.org/2000/svg" xmlns:xlink="http://www.w3.org/1999/xlink" fill="none" version="1.1" width="19.5" height="19.5" viewBox="0 0 19.5 19.5"><g style="mix-blend-mode:passthrough"><path d="M3.70588,9.75L3.70588,4.4558800000000005Q3.70588,4.38201,3.72029,4.309559999999999Q3.7347,4.23712,3.76297,4.16887Q3.79124,4.10062,3.83228,4.0392Q3.87332,3.97778,3.92555,3.92555Q3.97778,3.87332,4.0392,3.83228Q4.10062,3.79124,4.16887,3.76297Q4.2371099999999995,3.7347,4.309559999999999,3.72029Q4.38201,3.70588,4.4558800000000005,3.70588Q4.52975,3.70588,4.6022,3.72029Q4.67465,3.7347,4.74289,3.76297Q4.81114,3.79124,4.87256,3.83228Q4.93398,3.87332,4.98621,3.92555Q5.03844,3.97778,5.07948,4.0392Q5.12052,4.10062,5.14879,4.16887Q5.17706,4.2371099999999995,5.19147,4.309559999999999Q5.20588,4.38201,5.20588,4.4558800000000005L5.20588,9.75Q5.20588,9.82387,5.19147,9.89632Q5.17706,9.96877,5.14879,10.03701Q5.12052,10.10526,5.07948,10.16668Q5.03844,10.2281,4.98621,10.28033Q4.93398,10.33256,4.87256,10.3736Q4.81114,10.41464,4.74289,10.44291Q4.67465,10.47118,4.6022,10.48559Q4.52975,10.5,4.4558800000000005,10.5Q4.38201,10.5,4.309559999999999,10.48559Q4.23712,10.47118,4.16887,10.44291Q4.10062,10.41464,4.0392,10.3736Q3.97778,10.33256,3.92555,10.28033Q3.87332,10.2281,3.83228,10.16668Q3.79124,10.10526,3.76297,10.03701Q3.7347,9.96877,3.72029,9.89632Q3.70588,9.82387,3.70588,9.75ZM7.41176,11.8676L7.41176,4.4558800000000005Q7.41176,4.38201,7.42618,4.309559999999999Q7.44059,4.23712,7.46885,4.16887Q7.49712,4.10062,7.53816,4.0392Q7.5792,3.97778,7.63143,3.92555Q7.68367,3.87332,7.74509,3.83228Q7.80651,3.79124,7.87475,3.76297Q7.943,3.7347,8.015450000000001,3.72029Q8.087900000000001,3.70588,8.161760000000001,3.70588Q8.23563,3.70588,8.30808,3.72029Q8.38053,3.7347,8.44878,3.76297Q8.517019999999999,3.79124,8.57844,3.83228Q8.639859999999999,3.87332,8.69209,3.92555Q8.74433,3.97778,8.78537,4.0392Q8.8264,4.10062,8.85467,4.16887Q8.88294,4.2371099999999995,8.89735,4.309559999999999Q8.91176,4.38201,8.91176,4.4558800000000005L8.91176,11.8676Q8.91176,11.9415,8.89735,12.014Q8.88294,12.0864,8.85467,12.1547Q8.8264,12.2229,8.78537,12.2843Q8.74433,12.3457,8.69209,12.398Q8.639859999999999,12.4502,8.57844,12.4912Q8.517019999999999,12.5323,8.44878,12.5606Q8.38053,12.5888,8.30808,12.6032Q8.23563,12.6176,8.161760000000001,12.6176Q8.087900000000001,12.6176,8.015450000000001,12.6032Q7.943,12.5888,7.87475,12.5606Q7.80651,12.5323,7.74509,12.4912Q7.68367,12.4502,7.63143,12.398Q7.5792,12.3457,7.53816,12.2843Q7.49712,12.2229,7.46885,12.1547Q7.44059,12.0864,7.42618,12.014Q7.41176,11.9415,7.41176,11.8676ZM11.1176,7.10294L11.1176,4.4558800000000005Q11.1176,4.38201,11.1321,4.309559999999999Q11.1465,4.23712,11.1747,4.16887Q11.203,4.10062,11.244,4.0392Q11.2851,3.97778,11.3373,3.92555Q11.3895,3.87332,11.451,3.83228Q11.5124,3.79124,11.5806,3.76297Q11.6489,3.7347,11.7213,3.72029Q11.7938,3.70588,11.8676,3.70588Q11.9415,3.70588,12.014,3.72029Q12.0864,3.7347,12.1547,3.76297Q12.2229,3.79124,12.2843,3.83228Q12.3457,3.87332,12.398,3.92555Q12.4502,3.97778,12.4912,4.0392Q12.5323,4.10062,12.5606,4.16887Q12.5888,4.2371099999999995,12.6032,4.309559999999999Q12.6176,4.38201,12.6176,4.4558800000000005L12.6176,7.10294Q12.6176,7.17681,12.6032,7.24926Q12.5888,7.32171,12.5606,7.38995Q12.5323,7.4582,12.4912,7.51962Q12.4502,7.58104,12.398,7.63327Q12.3457,7.6855,12.2843,7.72654Q12.2229,7.76758,12.1547,7.79585Q12.0864,7.82412,12.014,7.83853Q11.9415,7.85294,11.8676,7.85294Q11.7938,7.85294,11.7213,7.83853Q11.6489,7.82412,11.5806,7.79585Q11.5124,7.76758,11.451,7.72654Q11.3895,7.6855,11.3373,7.63327Q11.2851,7.58104,11.244,7.51962Q11.203,7.4582,11.1747,7.38995Q11.1465,7.32171,11.1321,7.24926Q11.1176,7.17681,11.1176,7.10294ZM0,17.7576L0,9.75L0,1.742366Q0,1.017493,0.508746,0.508746Q1.017493,0,1.742367,0L9.75,0L17.7576,0Q18.4825,0,18.9913,0.508746Q19.5,1.017493,19.5,1.742366L19.5,9.75L19.5,17.7576Q19.5,18.4825,18.9913,18.9913Q18.4825,19.5,17.7576,19.5L9.75,19.5L1.742366,19.5Q1.017492,19.5,0.508746,18.9913Q0,18.4825,0,17.7576ZM1.5,17.7576Q1.5,18,1.742366,18L9.75,18L17.7576,18Q18,18,18,17.7576L18,9.75L18,1.742366Q18,1.5,17.7576,1.5L9.75,1.5L1.742366,1.5Q1.5,1.5,1.5,1.742366L1.5,9.75L1.5,17.7576ZM5.20588,9.75Q5.20588,9.82387,5.19147,9.89632Q5.17706,9.96877,5.14879,10.03701Q5.12052,10.10526,5.07948,10.16668Q5.03844,10.2281,4.98621,10.28033Q4.93398,10.33256,4.87256,10.3736Q4.81114,10.41464,4.74289,10.44291Q4.67465,10.47118,4.6022,10.48559Q4.52975,10.5,4.4558800000000005,10.5Q4.38201,10.5,4.309559999999999,10.48559Q4.2371099999999995,10.47118,4.16887,10.44291Q4.10062,10.41464,4.0392,10.3736Q3.97778,10.33256,3.92555,10.28033Q3.87332,10.2281,3.83228,10.16668Q3.79124,10.10526,3.76297,10.03701Q3.7347,9.96877,3.72029,9.89632Q3.70588,9.82387,3.70588,9.75Q3.70588,9.67613,3.72029,9.60368Q3.7347,9.53123,3.76297,9.46299Q3.79124,9.39474,3.83228,9.33332Q3.87332,9.2719,3.92555,9.21967Q3.97778,9.16744,4.0392,9.1264Q4.10062,9.08536,4.16887,9.05709Q4.2371099999999995,9.02882,4.309559999999999,9.01441Q4.38201,9,4.4558800000000005,9Q4.52975,9,4.6022,9.01441Q4.67465,9.02882,4.74289,9.05709Q4.81114,9.08536,4.87256,9.1264Q4.93398,9.16744,4.98621,9.21967Q5.03844,9.2719,5.07948,9.33332Q5.12052,9.39474,5.14879,9.46299Q5.17706,9.53123,5.19147,9.60368Q5.20588,9.67613,5.20588,9.75ZM5.20588,4.4558800000000005Q5.20588,4.52975,5.19147,4.6022Q5.17706,4.67465,5.14879,4.74289Q5.12052,4.81114,5.07948,4.87256Q5.03844,4.93398,4.98621,4.98621Q4.93398,5.03844,4.87256,5.07948Q4.81114,5.12052,4.74289,5.14879Q4.67465,5.17706,4.6022,5.19147Q4.52975,5.20588,4.4558800000000005,5.20588Q4.38201,5.20588,4.309559999999999,5.19147Q4.2371099999999995,5.17706,4.16887,5.14879Q4.10062,5.12052,4.0392,5.07948Q3.97778,5.03844,3.92555,4.98621Q3.87332,4.93398,3.83228,4.87256Q3.79124,4.81114,3.76297,4.74289Q3.7347,4.67465,3.72029,4.6022Q3.70588,4.52975,3.70588,4.4558800000000005Q3.70588,4.38201,3.72029,4.309559999999999Q3.7347,4.2371099999999995,3.76297,4.16887Q3.79124,4.10062,3.83228,4.0392Q3.87332,3.97778,3.92555,3.92555Q3.97778,3.87332,4.0392,3.83228Q4.10062,3.79124,4.16887,3.76297Q4.2371099999999995,3.7347,4.309559999999999,3.72029Q4.38201,3.70588,4.4558800000000005,3.70588Q4.52975,3.70588,4.6022,3.72029Q4.67465,3.7347,4.74289,3.76297Q4.81114,3.79124,4.87256,3.83228Q4.93398,3.87332,4.98621,3.92555Q5.03844,3.97778,5.07948,4.0392Q5.12052,4.10062,5.14879,4.16887Q5.17706,4.2371099999999995,5.19147,4.309559999999999Q5.20588,4.38201,5.20588,4.4558800000000005ZM8.91176,11.8676Q8.91176,11.9415,8.89735,12.014Q8.88294,12.0864,8.85467,12.1547Q8.8264,12.2229,8.78537,12.2843Q8.74433,12.3457,8.69209,12.398Q8.639859999999999,12.4502,8.57844,12.4912Q8.517019999999999,12.5323,8.44878,12.5606Q8.38053,12.5888,8.30808,12.6032Q8.23563,12.6176,8.161760000000001,12.6176Q8.08789,12.6176,8.015450000000001,12.6032Q7.943,12.5888,7.87475,12.5606Q7.80651,12.5323,7.74509,12.4912Q7.68367,12.4502,7.63143,12.398Q7.5792,12.3457,7.53816,12.2843Q7.49712,12.2229,7.46885,12.1547Q7.44059,12.0864,7.42618,12.014Q7.41176,11.9415,7.41176,11.8676Q7.41176,11.7938,7.42618,11.7213Q7.44059,11.6489,7.46885,11.5806Q7.49712,11.5124,7.53816,11.451Q7.5792,11.3895,7.63143,11.3373Q7.68367,11.2851,7.74509,11.244Q7.80651,11.203,7.87475,11.1747Q7.943,11.1465,8.015450000000001,11.1321Q8.08789,11.1176,8.161760000000001,11.1176Q8.23563,11.1176,8.30808,11.1321Q8.38053,11.1465,8.44878,11.1747Q8.517019999999999,11.203,8.57844,11.244Q8.639859999999999,11.2851,8.69209,11.3373Q8.74433,11.3895,8.78537,11.451Q8.8264,11.5124,8.85467,11.5806Q8.88294,11.6489,8.89735,11.7213Q8.91176,11.7938,8.91176,11.8676ZM8.91176,4.4558800000000005Q8.91176,4.52975,8.89735,4.6022Q8.88294,4.67465,8.85467,4.74289Q8.8264,4.81114,8.78537,4.87256Q8.74433,4.93398,8.69209,4.98621Q8.639859999999999,5.03844,8.57844,5.07948Q8.517019999999999,5.12052,8.44878,5.14879Q8.38053,5.17706,8.30808,5.19147Q8.23563,5.20588,8.161760000000001,5.20588Q8.08789,5.20588,8.015450000000001,5.19147Q7.943,5.17706,7.87475,5.14879Q7.80651,5.12052,7.74509,5.07948Q7.68367,5.03844,7.63143,4.98621Q7.5792,4.93398,7.53816,4.87256Q7.49712,4.81114,7.46885,4.74289Q7.44059,4.67465,7.42618,4.6022Q7.41176,4.52975,7.41176,4.4558800000000005Q7.41176,4.38201,7.42618,4.309559999999999Q7.44059,4.2371099999999995,7.46885,4.16887Q7.49712,4.10062,7.53816,4.0392Q7.5792,3.97778,7.63143,3.92555Q7.68367,3.87332,7.74509,3.83228Q7.80651,3.79124,7.87475,3.76297Q7.943,3.7347,8.015450000000001,3.72029Q8.08789,3.70588,8.161760000000001,3.70588Q8.23563,3.70588,8.30808,3.72029Q8.38053,3.7347,8.44878,3.76297Q8.517019999999999,3.79124,8.57844,3.83228Q8.639859999999999,3.87332,8.69209,3.92555Q8.74433,3.97778,8.78537,4.0392Q8.8264,4.10062,8.85467,4.16887Q8.88294,4.2371099999999995,8.89735,4.309559999999999Q8.91176,4.38201,8.91176,4.4558800000000005ZM12.6176,7.10294Q12.6176,7.17681,12.6032,7.24926Q12.5888,7.32171,12.5606,7.38995Q12.5323,7.4582,12.4912,7.51962Q12.4502,7.58104,12.398,7.63327Q12.3457,7.6855,12.2843,7.72654Q12.2229,7.76758,12.1547,7.79585Q12.0864,7.82412,12.014,7.83853Q11.9415,7.85294,11.8676,7.85294Q11.7938,7.85294,11.7213,7.83853Q11.6489,7.82412,11.5806,7.79585Q11.5124,7.76758,11.451,7.72654Q11.3895,7.6855,11.3373,7.63327Q11.2851,7.58104,11.244,7.51962Q11.203,7.4582,11.1747,7.38995Q11.1465,7.32171,11.1321,7.24926Q11.1176,7.17681,11.1176,7.10294Q11.1176,7.02907,11.1321,6.95662Q11.1465,6.88417,11.1747,6.81593Q11.203,6.74768,11.244,6.68626Q11.2851,6.62484,11.3373,6.57261Q11.3895,6.52038,11.451,6.47934Q11.5124,6.4383,11.5806,6.41003Q11.6489,6.38176,11.7213,6.36735Q11.7938,6.35294,11.8676,6.35294Q11.9415,6.35294,12.014,6.36735Q12.0864,6.38176,12.1547,6.41003Q12.2229,6.4383,12.2843,6.47934Q12.3457,6.52038,12.398,6.57261Q12.4502,6.62484,12.4912,6.68626Q12.5323,6.74768,12.5606,6.81593Q12.5888,6.88417,12.6032,6.95662Q12.6176,7.02907,12.6176,7.10294ZM12.6176,4.4558800000000005Q12.6176,4.52975,12.6032,4.6022Q12.5888,4.67465,12.5606,4.74289Q12.5323,4.81114,12.4912,4.87256Q12.4502,4.93398,12.398,4.98621Q12.3457,5.03844,12.2843,5.07948Q12.2229,5.12052,12.1547,5.14879Q12.0864,5.17706,12.014,5.19147Q11.9415,5.20588,11.8676,5.20588Q11.7938,5.20588,11.7213,5.19147Q11.6489,5.17706,11.5806,5.14879Q11.5124,5.12052,11.451,5.07948Q11.3895,5.03844,11.3373,4.98621Q11.2851,4.93398,11.244,4.87256Q11.203,4.81114,11.1747,4.74289Q11.1465,4.67465,11.1321,4.6022Q11.1176,4.52975,11.1176,4.4558800000000005Q11.1176,4.38201,11.1321,4.309559999999999Q11.1465,4.2371099999999995,11.1747,4.16887Q11.203,4.10062,11.244,4.0392Q11.2851,3.97778,11.3373,3.92555Q11.3895,3.87332,11.451,3.83228Q11.5124,3.79124,11.5806,3.76297Q11.6489,3.7347,11.7213,3.72029Q11.7938,3.70588,11.8676,3.70588Q11.9415,3.70588,12.014,3.72029Q12.0864,3.7347,12.1547,3.76297Q12.2229,3.79124,12.2843,3.83228Q12.3457,3.87332,12.398,3.92555Q12.4502,3.97778,12.4912,4.0392Q12.5323,4.10062,12.5606,4.16887Q12.5888,4.2371099999999995,12.6032,4.309559999999999Q12.6176,4.38201,12.6176,4.4558800000000005Z" fill="#165DFF" fill-opacity="1"/></g></svg>