<svg xmlns="http://www.w3.org/2000/svg" xmlns:xlink="http://www.w3.org/1999/xlink" fill="none" version="1.1" width="24" height="24" viewBox="0 0 24 24"><g><g><g><g><path d="M20.25,11.5C20.25,16.3325,16.3325,20.25,11.5,20.25C11.5,20.25,11.5,21.75,11.5,21.75C17.160899999999998,21.75,21.75,17.160899999999998,21.75,11.5C21.75,11.5,20.25,11.5,20.25,11.5C20.25,11.5,20.25,11.5,20.25,11.5ZM11.5,20.25C6.66751,20.25,2.75,16.3325,2.75,11.5C2.75,11.5,1.25,11.5,1.25,11.5C1.25,17.160899999999998,5.83908,21.75,11.5,21.75C11.5,21.75,11.5,20.25,11.5,20.25C11.5,20.25,11.5,20.25,11.5,20.25ZM2.75,11.5C2.75,6.66751,6.66751,2.75,11.5,2.75C11.5,2.75,11.5,1.25,11.5,1.25C5.83908,1.25,1.25,5.83908,1.25,11.5C1.25,11.5,2.75,11.5,2.75,11.5C2.75,11.5,2.75,11.5,2.75,11.5ZM11.5,2.75C16.3325,2.75,20.25,6.66751,20.25,11.5C20.25,11.5,21.75,11.5,21.75,11.5C21.75,5.83908,17.160899999999998,1.25,11.5,1.25C11.5,1.25,11.5,2.75,11.5,2.75C11.5,2.75,11.5,2.75,11.5,2.75Z" fill="#000000" fill-opacity="1"/></g><g><path d="M21.46967,22.53033C21.76256,22.82322,22.23744,22.82322,22.53033,22.53033C22.82322,22.23744,22.82322,21.76256,22.53033,21.46967C22.53033,21.46967,21.46967,22.53033,21.46967,22.53033C21.46967,22.53033,21.46967,22.53033,21.46967,22.53033ZM20.53033,19.46967C20.237437,19.1767768,19.762563,19.1767768,19.46967,19.46967C19.1767768,19.762563,19.1767768,20.237437,19.46967,20.53033C19.46967,20.53033,20.53033,19.46967,20.53033,19.46967C20.53033,19.46967,20.53033,19.46967,20.53033,19.46967ZM22.53033,21.46967C22.53033,21.46967,20.53033,19.46967,20.53033,19.46967C20.53033,19.46967,19.46967,20.53033,19.46967,20.53033C19.46967,20.53033,21.46967,22.53033,21.46967,22.53033C21.46967,22.53033,22.53033,21.46967,22.53033,21.46967C22.53033,21.46967,22.53033,21.46967,22.53033,21.46967Z" fill="#000000" fill-opacity="1"/></g><g style="opacity:0;"></g></g></g></g></svg>