<svg xmlns="http://www.w3.org/2000/svg" xmlns:xlink="http://www.w3.org/1999/xlink" fill="none" version="1.1" width="24" height="24" viewBox="0 0 24 24"><defs><clipPath id="master_svg0_92_3521"><rect x="0" y="0" width="24" height="24" rx="0"/></clipPath></defs><g clip-path="url(#master_svg0_92_3521)"><g><path d="M8.4349015625,3.0985300000000002C8.6152515625,2.449304,9.2063515625,2,9.8801515625,2C9.8801515625,2,14.1201015625,2,14.1201015625,2C14.7939015625,2,15.3850015625,2.449302,15.5653015625,3.0985300000000002C15.5653015625,3.0985300000000002,16.0767015625,4.93928,16.0767015625,4.93928C16.0767015625,4.93928,17.9266015625,4.461679999999999,17.9266015625,4.461679999999999C18.5791015625,4.2932500000000005,19.2637015625,4.5805299999999995,19.6006015625,5.16406C19.6006015625,5.16406,21.7206015625,8.83595,21.7206015625,8.83595C22.0574015625,9.4195,21.9639015625,10.15605,21.4919015625,10.63685C21.4919015625,10.63685,20.1534015625,12,20.1534015625,12C20.1534015625,12,21.4919015625,13.3631,21.4919015625,13.3631C21.9639015625,13.844,22.0574015625,14.5806,21.7206015625,15.1641C21.7206015625,15.1641,19.6006015625,18.836,19.6006015625,18.836C19.2637015625,19.4195,18.5791015625,19.7068,17.9266015625,19.5383C17.9266015625,19.5383,16.0767015625,19.0607,16.0767015625,19.0607C16.0767015625,19.0607,15.5653015625,20.9014,15.5653015625,20.9014C15.3850015625,21.5507,14.7939015625,22,14.1201015625,22C14.1201015625,22,9.8801515625,22,9.8801515625,22C9.2063515625,22,8.6152515625,21.5507,8.4349015625,20.9014C8.4349015625,20.9014,7.9236015625,19.0608,7.9236015625,19.0608C7.9236015625,19.0608,6.074051562499999,19.5383,6.074051562499999,19.5383C5.4216315625,19.7068,4.7369615624999994,19.4195,4.4000515625,18.836C4.4000515625,18.836,2.2800955625,15.1641,2.2800955625,15.1641C1.9431905624999999,14.5806,2.0367358625,13.844,2.5088155625,13.3631C2.5088155625,13.3631,3.8472515625000003,12,3.8472515625000003,12C3.8472515625000003,12,2.5088175625,10.63685,2.5088175625,10.63685C2.0367396625,10.15605,1.9431905624999999,9.4195,2.2800975625,8.83595C2.2800975625,8.83595,4.4000615624999995,5.16406,4.4000615624999995,5.16406C4.7369615624999994,4.5805299999999995,5.4216315625,4.2932500000000005,6.074051562499999,4.461679999999999C6.074051562499999,4.461679999999999,7.9236015625,4.93918,7.9236015625,4.93918C7.9236015625,4.93918,8.4349015625,3.0985300000000002,8.4349015625,3.0985300000000002C8.4349015625,3.0985300000000002,8.4349015625,3.0985300000000002,8.4349015625,3.0985300000000002ZM7.7922015625,18.5878C7.7922015625,18.5878,7.7924015625,18.5884,7.7924015625,18.5884C7.7924015625,18.5884,7.7922015625,18.5878,7.7922015625,18.5878ZM10.2602015625,4C10.2602015625,4,9.7192515625,5.94749,9.7192515625,5.94749C9.500401562499999,6.73539,8.690751562500001,7.2028,7.8990015625,6.9984C7.8990015625,6.9984,5.9420815625,6.49319,5.9420815625,6.49319C5.9420815625,6.49319,4.2021715625,9.5068,4.2021715625,9.5068C4.2021715625,9.5068,5.6183015625,10.9491,5.6183015625,10.9491C6.1912015625,11.5326,6.1912015625,12.4675,5.6183015625,13.0509C5.6183015625,13.0509,4.202161562500001,14.4932,4.202161562500001,14.4932C4.202161562500001,14.4932,5.9420815625,17.5068,5.9420815625,17.5068C5.9420815625,17.5068,7.8990015625,17.0016,7.8990015625,17.0016C8.690801562499999,16.7972,9.500401562499999,17.2646,9.7192515625,18.0525C9.7192515625,18.0525,10.2602015625,20,10.2602015625,20C10.2602015625,20,13.7400015625,20,13.7400015625,20C13.7400015625,20,14.2811015625,18.0524,14.2811015625,18.0524C14.4999015625,17.264499999999998,15.3095015625,16.7971,16.101301562499998,17.0015C16.101301562499998,17.0015,18.0586015625,17.5068,18.0586015625,17.5068C18.0586015625,17.5068,19.7985015625,14.4932,19.7985015625,14.4932C19.7985015625,14.4932,18.3823015625,13.0509,18.3823015625,13.0509C17.8095015625,12.4675,17.8095015625,11.5326,18.3823015625,10.9491C18.3823015625,10.9491,19.7985015625,9.5068,19.7985015625,9.5068C19.7985015625,9.5068,18.0586015625,6.4932,18.0586015625,6.4932C18.0586015625,6.4932,16.101301562499998,6.99851,16.101301562499998,6.99851C15.3095015625,7.2029,14.4999015625,6.73549,14.2811015625,5.94759C14.2811015625,5.94759,13.7400015625,4,13.7400015625,4C13.7400015625,4,10.2602015625,4,10.2602015625,4C10.2602015625,4,10.2602015625,4,10.2602015625,4ZM12.0001015625,10C10.8955515625,10,10.0001015625,10.89545,10.0001015625,12C10.0001015625,13.1046,10.8955515625,14,12.0001015625,14C13.1047015625,14,14.0001015625,13.1046,14.0001015625,12C14.0001015625,10.89545,13.1047015625,10,12.0001015625,10C12.0001015625,10,12.0001015625,10,12.0001015625,10ZM8.0001015625,12C8.0001015625,9.790849999999999,9.7910015625,8,12.0001015625,8C14.2092015625,8,16.0001015625,9.790849999999999,16.0001015625,12C16.0001015625,14.2092,14.2092015625,16,12.0001015625,16C9.7910015625,16,8.0001015625,14.2092,8.0001015625,12C8.0001015625,12,8.0001015625,12,8.0001015625,12Z" fill-rule="evenodd" fill="#4E5969" fill-opacity="1"/></g></g></svg>