<svg xmlns="http://www.w3.org/2000/svg" xmlns:xlink="http://www.w3.org/1999/xlink" fill="none" version="1.1" width="14.25" height="14.25" viewBox="0 0 14.25 14.25"><g style="mix-blend-mode:passthrough"><path d="M4.875,3.75C4.875,2.50736,5.88236,1.5,7.125,1.5C8.36764,1.5,9.375,2.50736,9.375,3.75C9.375,4.99264,8.36764,6,7.125,6C5.88236,6,4.875,4.99264,4.875,3.75C4.875,3.75,4.875,3.75,4.875,3.75ZM7.125,0C5.05395,0,3.375,1.67893,3.375,3.75C3.375,5.82105,5.05395,7.5,7.125,7.5C9.19605,7.5,10.875,5.82105,10.875,3.75C10.875,1.67893,9.19605,0,7.125,0C7.125,0,7.125,0,7.125,0ZM4.125,8.25C3.04559,8.25,2.0214,8.57891,1.25394,9.22856C0.474585,9.8883,0,10.8478,0,12C0,12,0,13.125,0,13.125C0,13.7463,0.503681,14.25,1.125,14.25C1.125,14.25,13.125,14.25,13.125,14.25C13.7463,14.25,14.25,13.7463,14.25,13.125C14.25,13.125,14.25,12,14.25,12C14.25,10.8478,13.7754,9.8883,12.9961,9.22856C12.2286,8.57891,11.2044,8.25,10.125,8.25C10.125,8.25,4.125,8.25,4.125,8.25C4.125,8.25,4.125,8.25,4.125,8.25ZM1.5,12C1.5,11.2882,1.78093,10.7477,2.22309,10.3734C2.67714,9.9891,3.34045,9.75,4.125,9.75C4.125,9.75,10.125,9.75,10.125,9.75C10.9095,9.75,11.5729,9.9891,12.0269,10.3734C12.4691,10.7477,12.75,11.2882,12.75,12C12.75,12,12.75,12.75,12.75,12.75C12.75,12.75,1.5,12.75,1.5,12.75C1.5,12.75,1.5,12,1.5,12C1.5,12,1.5,12,1.5,12Z" fill-rule="evenodd" fill="#0256FF" fill-opacity="1"/></g></svg>