<svg xmlns="http://www.w3.org/2000/svg" xmlns:xlink="http://www.w3.org/1999/xlink" fill="none" version="1.1" width="24" height="24" viewBox="0 0 24 24"><clipPath id="master_svg0_245_26534"><rect x="0" y="0" width="24" height="24" rx="0"/></clipPath><g clip-path="url(#master_svg0_245_26534)" style="mix-blend-mode:passthrough"><g><g style="mix-blend-mode:passthrough"><path d="M8.000003358764648,10.759998973286132C8.000003358764648,10.759998973286132,7.420003358764649,10.759998973286132,7.420003358764649,10.759998973286132C6.6285033587646485,10.731393093286133,5.839573358764648,10.865758493286133,5.102173358764649,11.154756493286133C4.364763358764648,11.443754493286132,3.6946243587646483,11.881217493286133,3.1333333587646486,12.439997493286132C3.1333333587646486,12.439997493286132,2.9733333587646484,12.626667493286133,2.9733333587646484,12.626667493286133C2.9733333587646484,12.626667493286133,2.9733333587646484,18.14666749328613,2.9733333587646484,18.14666749328613C2.9733333587646484,18.14666749328613,5.693333358764649,18.14666749328613,5.693333358764649,18.14666749328613C5.693333358764649,18.14666749328613,5.693333358764649,15.013337493286134,5.693333358764649,15.013337493286134C5.693333358764649,15.013337493286134,6.060003358764648,14.599997493286132,6.060003358764648,14.599997493286132C6.060003358764648,14.599997493286132,6.2266633587646485,14.406667493286132,6.2266633587646485,14.406667493286132C7.094613358764648,13.514997493286133,8.175183358764649,12.858857493286132,9.366663358764647,12.499997493286132C8.77013335876465,12.046087493286134,8.299653358764647,11.447092493286133,8.000003358764648,10.759998973286132C8.000003358764648,10.759998973286132,8.000003358764648,10.759998973286132,8.000003358764648,10.759998973286132Z" fill="#165DFF" fill-opacity="1"/></g><g style="mix-blend-mode:passthrough"><path d="M20.893336145324707,12.419998942871093C20.332046145324707,11.861218942871094,19.661896145324707,11.423755942871093,18.924496145324706,11.134757942871094C18.187096145324706,10.845759942871094,17.39816614532471,10.711394542871094,16.606666145324706,10.740000422871093C16.36391614532471,10.740688492871094,16.121366145324707,10.754039642871094,15.879996145324707,10.780000042871094C15.574726145324707,11.424602942871093,15.117103145324707,11.985188942871094,14.546666145324707,12.413328942871093C15.818656145324708,12.765228942871094,16.970916145324708,13.456588942871093,17.879996145324707,14.413328942871093C17.879996145324707,14.413328942871093,18.046666145324707,14.599998942871094,18.046666145324707,14.599998942871094C18.046666145324707,14.599998942871094,18.406666145324706,15.013328942871095,18.406666145324706,15.013328942871095C18.406666145324706,15.013328942871095,18.406666145324706,18.15332894287109,18.406666145324706,18.15332894287109C18.406666145324706,18.15332894287109,21.033336145324707,18.15332894287109,21.033336145324707,18.15332894287109C21.033336145324707,18.15332894287109,21.033336145324707,12.606668942871094,21.033336145324707,12.606668942871094C21.033336145324707,12.606668942871094,20.893336145324707,12.419998942871093,20.893336145324707,12.419998942871093Z" fill="#165DFF" fill-opacity="1"/></g><g style="mix-blend-mode:passthrough"><path d="M7.399999400177002,9.46000330154419C7.399999400177002,9.46000330154419,7.606669400177002,9.46000330154419,7.606669400177002,9.46000330154419C7.510639400177002,8.635493301544189,7.655309400177002,7.80082330154419,8.023219400177002,7.0567233015441895C8.391129400177002,6.31263330154419,8.966539400177002,5.69093330154419,9.679999400177003,5.26666330154419C9.421379400177003,4.871566301544189,9.064579400177003,4.550404301544189,8.644539400177003,4.3346313015441895C8.224499400177002,4.11885730154419,7.755619400177002,4.015869401544189,7.283819400177002,4.035751591544189C6.812019400177002,4.0556338015441895,6.353479400177002,4.1977043015441895,5.9530794001770015,4.448052301544189C5.552683400177002,4.69839930154419,5.2241684001770015,5.048443301544189,4.999702400177002,5.463903301544189C4.775237400177002,5.87935330154419,4.662516410177002,6.34599330154419,4.672578620177002,6.818103301544189C4.682640800177002,7.29021330154419,4.815141400177002,7.7516133015441895,5.057104400177002,8.157133301544189C5.299067400177002,8.56265330154419,5.642198400177002,8.89838330154419,6.052899400177002,9.13144330154419C6.463599400177002,9.36450330154419,6.927779400177002,9.486903301544189,7.399999400177002,9.48666330154419C7.399999400177002,9.48666330154419,7.399999400177002,9.46000330154419,7.399999400177002,9.46000330154419Z" fill="#165DFF" fill-opacity="1"/></g><g style="mix-blend-mode:passthrough"><path d="M16.286662557678223,8.959998103027344C16.294762557678222,9.113228103027343,16.294762557678222,9.266778103027344,16.286662557678223,9.419998103027343C16.414602557678222,9.440278103027344,16.543812557678223,9.451418103027343,16.673332557678222,9.453338103027344C16.673332557678222,9.453338103027344,16.800002557678223,9.453338103027344,16.800002557678223,9.453338103027344C17.270142557678223,9.428268103027344,17.725782557678222,9.281888103027343,18.122562557678222,9.028448103027344C18.519342557678222,8.775018103027342,18.843742557678222,8.423168103027344,19.064172557678223,8.007148103027344C19.284602557678223,7.591128103027344,19.393552557678223,7.125118103027344,19.380422557678223,6.654488103027344C19.367292557678223,6.183858103027344,19.232522557678223,5.724648103027343,18.989242557678224,5.321568103027344C18.745952557678223,4.918488103027344,18.40244255767822,4.585268103027344,17.992152557678224,4.3543521030273435C17.58186255767822,4.123436103027344,17.118762557678224,4.002692363027344,16.647952557678224,4.003876732897344C16.177152557678223,4.0050611030273435,15.714662557678222,4.128133103027344,15.305541557678223,4.361111103027344C14.896415557678223,4.594088103027344,14.554585557678223,4.929032103027343,14.313332557678223,5.3333381030273435C14.916721557678223,5.727288103027344,15.412872557678222,6.264868103027344,15.757292557678223,6.897848103027344C16.101702557678223,7.530818103027343,16.283602557678222,8.239398103027344,16.286662557678223,8.959998103027344C16.286662557678223,8.959998103027344,16.286662557678223,8.959998103027344,16.286662557678223,8.959998103027344Z" fill="#165DFF" fill-opacity="1"/></g><g style="mix-blend-mode:passthrough"><path d="M14.893332443237306,8.966666202545166C14.893332443237306,10.612476202545167,13.559142443237306,11.946666202545167,11.913332443237305,11.946666202545167C10.267522443237304,11.946666202545167,8.933332443237305,10.612476202545167,8.933332443237305,8.966666202545166C8.933332443237305,7.320856202545166,10.267522443237304,5.986666202545166,11.913332443237305,5.986666202545166C13.559142443237306,5.986666202545166,14.893332443237306,7.320856202545166,14.893332443237306,8.966666202545166Z" fill="#165DFF" fill-opacity="1"/></g><g style="mix-blend-mode:passthrough"><path d="M12.073336507720947,13.533331951440429C11.202696507720947,13.498180701440429,10.333946507720947,13.63952710144043,9.519356507720946,13.94886410144043C8.704766507720947,14.25820210144043,7.961180507720948,14.729137101440429,7.333333507720948,15.33333710144043C7.333333507720948,15.33333710144043,7.166666507720947,15.51999710144043,7.166666507720947,15.51999710144043C7.166666507720947,15.51999710144043,7.166666507720947,19.73999710144043,7.166666507720947,19.73999710144043C7.169267987720947,19.87745710144043,7.198924607720947,20.01305710144043,7.253942307720947,20.13904710144043C7.308960507720947,20.26504710144043,7.388261507720947,20.37896710144043,7.487315507720948,20.47430710144043C7.586369507720947,20.56964710144043,7.7032365077209475,20.64453710144043,7.831240507720947,20.69469710144043C7.959243507720947,20.74486710144043,8.095876507720947,20.76931710144043,8.233336507720947,20.76666710144043C8.233336507720947,20.76666710144043,15.893336507720948,20.76666710144043,15.893336507720948,20.76666710144043C16.030786507720947,20.76931710144043,16.167426507720947,20.74486710144043,16.295426507720947,20.69469710144043C16.423426507720947,20.64453710144043,16.540296507720946,20.56964710144043,16.639346507720948,20.47430710144043C16.738406507720946,20.37896710144043,16.81770650772095,20.26504710144043,16.872726507720948,20.13904710144043C16.927736507720947,20.01305710144043,16.957396507720947,19.87745710144043,16.959996507720945,19.73999710144043C16.959996507720945,19.73999710144043,16.959996507720945,15.53333710144043,16.959996507720945,15.53333710144043C16.959996507720945,15.53333710144043,16.799996507720948,15.33333710144043,16.799996507720948,15.33333710144043C16.176216507720948,14.72727710144043,15.435216507720947,14.255016101440429,14.622446507720948,13.94549610144043C13.809666507720948,13.635976101440429,12.942236507720947,13.495721701440429,12.073336507720947,13.533331951440429C12.073336507720947,13.533331951440429,12.073336507720947,13.533331951440429,12.073336507720947,13.533331951440429Z" fill="#165DFF" fill-opacity="1"/></g><g style="mix-blend-mode:passthrough"></g></g></g></svg>