<svg width="24" height="24" viewBox="0 0 24 24" fill="none" xmlns="http://www.w3.org/2000/svg">
<path d="M19 3.99991H14.82C14.6098 3.42076 14.2264 2.92037 13.7218 2.56676C13.2173 2.21314 12.6161 2.02344 12 2.02344C11.3839 2.02344 10.7827 2.21314 10.2782 2.56676C9.77363 2.92037 9.3902 3.42076 9.18 3.99991H5C4.46957 3.99991 3.96086 4.21063 3.58579 4.5857C3.21071 4.96077 3 5.46948 3 5.99991V19.9999C3 20.5303 3.21071 21.0391 3.58579 21.4141C3.96086 21.7892 4.46957 21.9999 5 21.9999H19C19.5304 21.9999 20.0391 21.7892 20.4142 21.4141C20.7893 21.0391 21 20.5303 21 19.9999V5.99991C21 5.46948 20.7893 4.96077 20.4142 4.5857C20.0391 4.21063 19.5304 3.99991 19 3.99991ZM12 3.99991C12.1978 3.99991 12.3911 4.05856 12.5556 4.16844C12.72 4.27833 12.8482 4.4345 12.9239 4.61723C12.9996 4.79996 13.0194 5.00102 12.9808 5.195C12.9422 5.38899 12.847 5.56717 12.7071 5.70702C12.5673 5.84687 12.3891 5.94211 12.1951 5.9807C12.0011 6.01928 11.8 5.99948 11.6173 5.92379C11.4346 5.84811 11.2784 5.71993 11.1685 5.55548C11.0586 5.39104 11 5.1977 11 4.99991C11 4.7347 11.1054 4.48034 11.2929 4.29281C11.4804 4.10527 11.7348 3.99991 12 3.99991ZM19 18.9999H5V14.9999H19V18.9999ZM19 12.9999H5V8.99991H19V12.9999Z" fill="#165DFF"/>
<path d="M17 12C17.5523 12 18 11.5523 18 11C18 10.4477 17.5523 10 17 10C16.4477 10 16 10.4477 16 11C16 11.5523 16.4477 12 17 12Z" fill="#165DFF"/>
<path d="M14 12C14.5523 12 15 11.5523 15 11C15 10.4477 14.5523 10 14 10C13.4477 10 13 10.4477 13 11C13 11.5523 13.4477 12 14 12Z" fill="#165DFF"/>
<path d="M14 18C14.5523 18 15 17.5523 15 17C15 16.4477 14.5523 16 14 16C13.4477 16 13 16.4477 13 17C13 17.5523 13.4477 18 14 18Z" fill="#165DFF"/>
<path d="M17 18C17.5523 18 18 17.5523 18 17C18 16.4477 17.5523 16 17 16C16.4477 16 16 16.4477 16 17C16 17.5523 16.4477 18 17 18Z" fill="#165DFF"/>
<path d="M6 10H11V12H6V10ZM6 16H11V18H6V16Z" fill="#165DFF"/>
</svg>
