<svg xmlns="http://www.w3.org/2000/svg" xmlns:xlink="http://www.w3.org/1999/xlink" fill="none" version="1.1" width="24" height="24" viewBox="0 0 24 24"><clipPath id="master_svg0_245_30281"><rect x="0" y="0" width="24" height="24" rx="0"/></clipPath><g clip-path="url(#master_svg0_245_30281)" style="mix-blend-mode:passthrough"><g><g style="mix-blend-mode:passthrough"><path d="M20.121141349029543,17.896875C19.67894134902954,16.849575,19.03734134902954,15.898375,18.232041349029544,15.096075C17.429141349029543,14.291475,16.47804134902954,13.649975,15.431241349029541,13.207075C15.421841349029542,13.202375,15.41254134902954,13.199975,15.403141349029541,13.195275C16.863241349029543,12.140625,17.81254134902954,10.422654999999999,17.81254134902954,8.484375C17.81254134902954,5.273435,15.210941349029541,2.671875,12.00000134902954,2.671875C8.789061349029542,2.671875,6.1875013490295405,5.273435,6.1875013490295405,8.484375C6.1875013490295405,10.422654999999999,7.136721349029541,12.140625,8.596871349029541,13.197675C8.58750134902954,13.202375,8.57812134902954,13.204675,8.56875134902954,13.209375C7.518751349029541,13.652375,6.576561349029541,14.287475,5.767971349029541,15.098475C4.963381349029541,15.901375,4.321881349029541,16.852475,3.878906349029541,17.899175C3.443723349029541,18.924075,3.209020149029541,20.022775,3.1874999568295412,21.135975C3.186874398029541,21.160975,3.191261959029541,21.185875,3.200404249029541,21.209175C3.209546549029541,21.232375,3.223258449029541,21.253675,3.240732149029541,21.271575C3.258205849029541,21.289475,3.279087649029541,21.303675,3.302147349029541,21.313375C3.325206349029541,21.323175,3.3499773490295413,21.328175,3.375000349029541,21.328075C3.375000349029541,21.328075,4.7812513490295405,21.328075,4.7812513490295405,21.328075C4.884371349029541,21.328075,4.966401349029541,21.246075,4.9687513490295405,21.145275C5.015621349029541,19.335975,5.742191349029541,17.641375,7.02656134902954,16.357075000000002C8.355471349029541,15.028175,10.120311349029542,14.296875,12.00000134902954,14.296875C13.87964134902954,14.296875,15.644541349029542,15.028175,16.973441349029542,16.357075000000002C18.25784134902954,17.641375,18.984341349029542,19.335975,19.031241349029543,21.145275C19.03364134902954,21.248475,19.11564134902954,21.328075,19.218741349029543,21.328075C19.218741349029543,21.328075,20.62504134902954,21.328075,20.62504134902954,21.328075C20.65004134902954,21.328175,20.674841349029542,21.323175,20.69784134902954,21.313375C20.72094134902954,21.303675,20.741841349029542,21.289475,20.75924134902954,21.271575C20.776741349029543,21.253675,20.790441349029543,21.232375,20.799641349029542,21.209175C20.808741349029543,21.185875,20.81314134902954,21.160975,20.81254134902954,21.135975C20.789041349029542,20.015675,20.55704134902954,18.925775,20.121141349029543,17.896875C20.121141349029543,17.896875,20.121141349029543,17.896875,20.121141349029543,17.896875ZM12.00000134902954,12.515625C10.92422134902954,12.515625,9.911721349029541,12.096095,9.15000134902954,11.334375C8.38828134902954,10.572655000000001,7.968751349029541,9.560155,7.968751349029541,8.484375C7.968751349029541,7.408595,8.38828134902954,6.396095,9.15000134902954,5.634375C9.911721349029541,4.872655,10.92422134902954,4.453125,12.00000134902954,4.453125C13.07578134902954,4.453125,14.088241349029541,4.872655,14.85004134902954,5.634375C15.611741349029542,6.396095,16.031241349029543,7.408595,16.031241349029543,8.484375C16.031241349029543,9.560155,15.611741349029542,10.572655000000001,14.85004134902954,11.334375C14.088241349029541,12.096095,13.07578134902954,12.515625,12.00000134902954,12.515625Z" fill="#165DFF" fill-opacity="1"/></g></g></g></svg>