<svg xmlns="http://www.w3.org/2000/svg" xmlns:xlink="http://www.w3.org/1999/xlink" fill="none" version="1.1" width="224" height="110" viewBox="0 0 224 110"><g><path d="M8.35938,10.2266Q10.9922,6.40625,12.5547,1.4375L13.7812,1.76562Q13.1875,3.39844,12.4141,5.25781L22.3516,5.25781Q22.0703,16.1094,21.9141,19.4531Q21.9141,23.375,18.0938,23.3906Q16.5391,23.4375,15.0938,23.4375Q14.9922,22.7422,14.8125,22.0859Q16.4297,22.1562,17.9531,22.1562Q20.5703,22.2969,20.6172,19.3047Q20.8984,13.4766,21.0234,6.4375L18.9141,6.4375Q18.1328,18.2734,10.875,23.4141Q10.4453,22.9453,9.89062,22.4531Q17.0312,17.4922,17.6875,6.4375L15.3203,6.4375Q14.1953,14.4922,8.8125,19.1562Q8.3125,18.6406,7.80469,18.2656Q13.0469,13.7266,14.0859,6.4375L11.8828,6.4375Q10.7266,8.94531,9.48438,10.9062Q8.875,10.5078,8.35938,10.2266ZM5.08594,1.4375L6.29688,1.4375L6.29688,6.83594L8.83594,6.83594L8.83594,7.9375L6.29688,7.9375L6.29688,13.3828Q6.60938,13.2656,7.25781,13.0391Q8.24219,12.6875,8.71094,12.5078Q8.73438,13.0547,8.88281,13.7266Q8.53125,13.8516,7.78125,14.125Q6.79688,14.4688,6.29688,14.6406L6.29688,23.9375L5.08594,23.9375L5.08594,15.0859Q4.33594,15.3594,2.75781,15.9531Q1.54688,16.3984,0.914062,16.6406L0.625,15.3047Q3.22656,14.4688,5.08594,13.8047L5.08594,7.9375L2.5,7.9375Q2.10156,9.79688,1.49219,11.5312Q0.953125,11.2188,0.4375,10.9844Q1.70312,7.75,2.01562,3.51562L3.16406,3.64844Q3.01562,5.125,2.71094,6.83594L5.08594,6.83594L5.08594,1.4375ZM28.1953,2.21875L43.8047,2.21875L43.8047,10.4375L28.1953,10.4375L28.1953,2.21875ZM37.7266,13.2656L46.125,13.2656L46.125,23.9375L44.8828,23.9375L44.8828,22.4375L38.9766,22.4375L38.9766,23.9922L37.7266,23.9922L37.7266,13.2656ZM25.875,13.2656L34.2422,13.2656L34.2422,23.9375L33,23.9375L33,22.4375L27.1172,22.4375L27.1172,23.9922L25.875,23.9922L25.875,13.2656ZM29.4766,3.4375L29.4766,9.21094L42.5312,9.21094L42.5312,3.4375L29.4766,3.4375ZM38.9766,14.4375L38.9766,21.25L44.8828,21.25L44.8828,14.4375L38.9766,14.4375ZM27.1172,14.4375L27.1172,21.25L33,21.25L33,14.4375L27.1172,14.4375ZM58.2812,1.4375L59.5938,1.99219Q58.5938,3.28906,57.6953,4.21875L69.0234,4.21875L69.0234,5.50781Q64.1641,10.7344,56.3359,13.7188L68.9766,13.7188L68.9766,23.9375L67.6797,23.9375L67.6797,22.4375L54.6719,22.4375L54.6719,23.9375L53.3828,23.9375L53.3828,15.1172Q51.5078,15.7812,49.3516,16.4844Q48.9766,15.7578,48.6484,15.2734Q60.7891,12.1875,67.4219,5.4375L56.4766,5.4375Q55.7969,6.07812,55.0781,6.66406Q56.0312,7.48438,58.0234,9.30469Q58.4531,9.6875,58.6797,9.89844L57.5781,10.8125Q55.5,8.65625,54.1406,7.42969Q52.2891,8.86719,49.8516,10.4297Q49.4531,9.82031,49.0078,9.35156Q54.8125,6.14062,58.2812,1.4375ZM54.6719,14.9375L54.6719,21.2031L67.6797,21.2031L67.6797,14.9375L54.6719,14.9375ZM72.7969,8.33594L76.6797,8.33594L76.6797,4.28125Q75.3672,4.42188,73.1953,4.58594Q73.1172,4.07031,72.9375,3.46094Q76.8984,3.21875,80.8828,2.59375L81.1641,3.75781Q81.0469,3.76562,80.8281,3.80469Q78.9062,4.04688,77.8828,4.15625L77.8828,8.33594L80.7344,8.33594L80.7344,9.4375L77.8828,9.4375L77.8828,12.125L78.4375,11.6016Q79.9844,12.9141,81.3438,14.1953L80.5,15.0156Q78.6797,13.1797,77.8828,12.4688L77.8828,23.9375L76.6797,23.9375L76.6797,11.8672Q75.2812,16.2031,73.1719,19.125Q72.9609,18.6172,72.5312,17.8125Q75.3672,13.9375,76.6328,9.4375L72.7969,9.4375L72.7969,8.33594ZM82.1484,10.0391Q81.6953,9.60156,81.1406,9.25Q83.7578,5.49219,85.2422,1.4375L86.5,1.76562Q85.7266,3.51562,85.0781,4.74219L94.7266,4.74219L94.7266,6.03125L93.0469,9.75781Q92.5234,9.48438,91.875,9.27344L93.4609,5.9375L84.4844,5.9375Q83.5703,7.77344,82.1484,10.0391ZM87.2969,7.53906L88.5391,7.53906L88.5391,20.8203Q88.6641,23.5781,85.9219,23.5312Q85.4531,23.5391,84.9766,23.5547Q84.7422,23.5547,84.4688,23.5547Q84.25,23.5547,83.8359,23.4375Q83.7812,22.9219,83.5703,22.1094Q84.5312,22.1953,85.7578,22.1953Q87.375,22.2891,87.2969,20.75L87.2969,7.53906ZM90.4609,11.8594L91.5625,11.3828Q93.1641,14.4922,95.3594,19.1953L94.125,19.7891Q92.3438,15.6719,90.4609,11.8594ZM83.8125,11.4766L85.0078,11.8594Q83.4766,16.0547,81.7969,19.9531L80.5469,19.4297Q82.3516,15.8516,83.8125,11.4766ZM98.875,9.9375Q98.4375,9.9375,98.1484,9.64062Q97.8672,9.33594,97.8672,8.91406Q97.8672,8.49219,98.1484,8.21875Q98.4375,7.9375,98.875,7.9375Q99.3047,7.9375,99.6094,8.21875Q99.9141,8.49219,99.9141,8.91406Q99.9141,9.33594,99.6094,9.64062Q99.3047,9.9375,98.875,9.9375ZM98.875,20.9375Q98.4375,20.9375,98.1484,20.6484Q97.8672,20.3594,97.8672,19.9297Q97.8672,19.4922,98.1484,19.2188Q98.4375,18.9375,98.875,18.9375Q99.3047,18.9375,99.6094,19.2188Q99.9141,19.4922,99.9141,19.9297Q99.9141,20.3594,99.6094,20.6484Q99.3047,20.9375,98.875,20.9375ZM123.117,3.63281Q118.945,3.85938,114.719,4.03125L114.719,8.76562L123.273,8.76562L123.273,9.9375L114.719,9.9375L114.719,14.7422L125.312,14.7422L125.312,15.9375L114.719,15.9375L114.719,20.4922Q114.867,23.4453,111.648,23.4141Q110.648,23.4375,108.141,23.4375Q108.109,22.9766,107.898,22.2734Q107.859,22.1328,107.836,22.0625Q108.484,22.1016,109.328,22.125Q109.727,22.125,110.203,22.1328Q110.641,22.1328,111.391,22.1328Q112.57,22.1484,112.984,21.7344Q113.414,21.3438,113.406,20.2266L113.406,15.9375L102.742,15.9375L102.742,14.7422L113.406,14.7422L113.406,9.9375L104.406,9.9375L104.406,8.76562L113.406,8.76562L113.406,4.07812Q108.203,4.29688,104.289,4.36719Q104.266,3.875,104.086,3.14062Q114.445,3,122.859,2.4375L123.117,3.63281ZM138.391,3.9375L138.391,10.6797Q138.422,16.1562,137.555,18.6406Q136.797,21.1797,134.086,23.9375Q133.406,23.2969,132.984,22.9609Q135.695,20.3438,136.359,18.1094Q137.148,15.9844,137.109,10.6328L137.109,2.74219L145.008,2.74219L145.008,20.4141Q144.953,21.8125,145.992,21.7188L146.477,21.7188Q147.703,21.7891,147.891,20.2031Q148.055,19.0469,148.219,16.5Q148.82,16.7734,149.43,16.9609Q149.266,19.3281,149.062,20.625Q148.758,23.0078,146.641,22.9375L145.781,22.9375Q143.688,22.9844,143.734,20.5781L143.734,3.9375L138.391,3.9375ZM127.102,17.3281Q126.867,16.6484,126.484,16.0312Q129.086,12.375,130.375,6.9375L127.031,6.9375L127.031,5.83594L130.445,5.83594L130.445,1.4375L131.641,1.4375L131.641,5.83594L134.906,5.83594L134.906,6.9375L131.641,6.9375L131.641,10.8438L132.32,10.125Q134.484,12.125,135.367,13.0312L134.5,13.9375Q133.336,12.7109,131.641,11.0781L131.641,23.9141L130.445,23.9141L130.445,9.42188Q129.164,14.5312,127.102,17.3281ZM8.35938,54.2266Q10.9922,50.4062,12.5547,45.4375L13.7812,45.7656Q13.1875,47.3984,12.4141,49.2578L22.3516,49.2578Q22.0703,60.1094,21.9141,63.4531Q21.9141,67.375,18.0938,67.3906Q16.5391,67.4375,15.0938,67.4375Q14.9922,66.7422,14.8125,66.0859Q16.4297,66.1562,17.9531,66.1562Q20.5703,66.2969,20.6172,63.3047Q20.8984,57.4766,21.0234,50.4375L18.9141,50.4375Q18.1328,62.2734,10.875,67.4141Q10.4453,66.9453,9.89062,66.4531Q17.0312,61.4922,17.6875,50.4375L15.3203,50.4375Q14.1953,58.4922,8.8125,63.1562Q8.3125,62.6406,7.80469,62.2656Q13.0469,57.7266,14.0859,50.4375L11.8828,50.4375Q10.7266,52.9453,9.48438,54.9062Q8.875,54.5078,8.35938,54.2266ZM5.08594,45.4375L6.29688,45.4375L6.29688,50.8359L8.83594,50.8359L8.83594,51.9375L6.29688,51.9375L6.29688,57.3828Q6.60938,57.2656,7.25781,57.0391Q8.24219,56.6875,8.71094,56.5078Q8.73438,57.0547,8.88281,57.7266Q8.53125,57.8516,7.78125,58.125Q6.79688,58.4688,6.29688,58.6406L6.29688,67.9375L5.08594,67.9375L5.08594,59.0859Q4.33594,59.3594,2.75781,59.9531Q1.54688,60.3984,0.914062,60.6406L0.625,59.3047Q3.22656,58.4688,5.08594,57.8047L5.08594,51.9375L2.5,51.9375Q2.10156,53.7969,1.49219,55.5312Q0.953125,55.2188,0.4375,54.9844Q1.70312,51.75,2.01562,47.5156L3.16406,47.6484Q3.01562,49.125,2.71094,50.8359L5.08594,50.8359L5.08594,45.4375ZM28.1953,46.2188L43.8047,46.2188L43.8047,54.4375L28.1953,54.4375L28.1953,46.2188ZM37.7266,57.2656L46.125,57.2656L46.125,67.9375L44.8828,67.9375L44.8828,66.4375L38.9766,66.4375L38.9766,67.9922L37.7266,67.9922L37.7266,57.2656ZM25.875,57.2656L34.2422,57.2656L34.2422,67.9375L33,67.9375L33,66.4375L27.1172,66.4375L27.1172,67.9922L25.875,67.9922L25.875,57.2656ZM29.4766,47.4375L29.4766,53.2109L42.5312,53.2109L42.5312,47.4375L29.4766,47.4375ZM38.9766,58.4375L38.9766,65.25L44.8828,65.25L44.8828,58.4375L38.9766,58.4375ZM27.1172,58.4375L27.1172,65.25L33,65.25L33,58.4375L27.1172,58.4375ZM62.5,45.4844L63.7969,45.4844Q63.7031,49.9219,63.5312,52.2344L70.8984,52.2344L70.8984,53.4375L63.6016,53.4375Q65.2969,62.2422,71.3125,66.1719Q70.7344,66.7656,70.2812,67.3438Q64.2344,62.6797,63,55.3906Q61.9141,63.0781,56.7656,67.7734Q56.3359,67.3047,55.6797,66.7266Q61.2812,61.9219,62.1328,53.4375L56.5703,53.4375L56.5703,52.2344L62.2891,52.2344Q62.5,49.6953,62.5,45.4844ZM53.9062,45.4375L55.1719,45.4375L55.1719,67.9375L53.9062,67.9375L53.9062,58.4062Q52.2578,59.8438,49.4219,62.1953L48.625,60.9844Q51.2812,58.9766,53.9062,56.7734L53.9062,45.4375ZM48.9844,49.7422L50.1094,49.2734Q51.3438,51.8594,52.7578,55.0078L51.5547,55.5234Q50.2891,52.5,48.9844,49.7422ZM68.6172,50.6953Q67.2188,49.3203,65.5234,47.9609L66.3906,47.0469Q67.8438,48.1719,69.5547,49.7344L68.6172,50.6953ZM84.9844,56.5312L84.0703,57.5391Q82.7578,56.4609,80.6406,54.9297Q78.3047,56.8359,73.4922,58.3125Q73.1484,57.6719,72.7188,57.0859Q81.25,54.8438,82.7266,49.9375L73.4688,49.9375L73.4688,48.7656L83.0625,48.7656Q83.2422,48.1016,83.2891,47.4141Q83.3125,47.0859,83.3203,46.6484Q83.3359,46.2891,83.3359,45.4375L84.625,45.4375Q84.625,47.3672,84.3906,48.7656L94.5156,48.7656L94.5156,49.9375L85.0078,49.9375Q87.6562,55.0938,95.3359,56.7344Q94.9375,57.2969,94.5859,58Q86.25,55.875,83.8828,50.125Q83.1328,52.5391,81.4609,54.2109Q83.3438,55.3828,84.9844,56.5312ZM78.6953,59.3516L79.9688,59.3516L79.9688,63.8906Q79.9609,64.9844,80.4141,65.3672Q80.8516,65.7734,82.1016,65.7656L86.3828,65.7656Q88.375,65.8359,88.6562,64.1328Q88.8906,63.125,89.0391,61.8516Q89.7891,62.1406,90.3203,62.2812Q90.1094,63.6406,89.8594,64.7109Q89.3906,67.0078,86.5469,66.9375L81.6719,66.9375Q78.5625,67.0703,78.6953,64.0625L78.6953,59.3516ZM75.1641,59.8984L76.4453,60.2891Q75.3203,63.4297,74.0859,66.0859Q73.1953,65.6172,72.8203,65.5078Q74.3203,62.6641,75.1641,59.8984ZM90.9609,60.4297L92.0156,59.7812Q93.8203,62.2578,95.3125,64.5312L94.1484,65.2344Q92.3594,62.3359,90.9609,60.4297ZM82.3984,59.3047L83.3828,58.5703Q85,60.4609,86.2266,62.0703L85.125,62.8984Q83.7656,60.9766,82.3984,59.3047ZM101.992,53.9375Q101.555,53.9375,101.266,53.6406Q100.984,53.3359,100.984,52.9141Q100.984,52.4922,101.266,52.2188Q101.555,51.9375,101.992,51.9375Q102.422,51.9375,102.727,52.2188Q103.031,52.4922,103.031,52.9141Q103.031,53.3359,102.727,53.6406Q102.422,53.9375,101.992,53.9375ZM101.992,64.9375Q101.555,64.9375,101.266,64.6484Q100.984,64.3594,100.984,63.9297Q100.984,63.4922,101.266,63.2188Q101.555,62.9375,101.992,62.9375Q102.422,62.9375,102.727,63.2188Q103.031,63.4922,103.031,63.9297Q103.031,64.3594,102.727,64.6484Q102.422,64.9375,101.992,64.9375ZM140.766,67.9375Q140.57,67.7031,140.148,67.2031Q139.383,66.3203,138.984,65.9062Q132.82,66.0625,125.156,66.4375Q124.117,66.4844,123.344,66.6562L122.664,65.2812Q123.75,64.8594,124.609,64.1875Q127.359,61.9141,129.672,59.4375L120.867,59.4375L120.867,58.2578L131.359,58.2578L131.359,53.9375L122.406,53.9375L122.406,52.7656L131.359,52.7656L131.359,48.1562Q130.867,48.1797,129.859,48.2109Q125.219,48.4219,122.711,48.5078Q122.641,47.7969,122.453,47.2266Q133.562,46.9453,141.141,46.4375L141.391,47.6562Q137.172,47.9219,132.625,48.1016L132.625,52.7656L141.578,52.7656L141.578,53.9375L132.625,53.9375L132.625,58.2578L143.133,58.2578L143.133,59.4375L131.477,59.4375Q128.758,62.2656,125.227,65.1953Q125.711,65.1797,126.75,65.1484Q133.539,64.9609,137.883,64.8281Q137.555,64.5,136.898,63.8516Q135.305,62.2578,134.547,61.5312L135.555,60.7969Q138.656,63.7031,141.867,67.0312L140.766,67.9375ZM145.781,67.9375Q145.375,67.3359,144.844,66.7266Q154.023,63.7109,155.156,57.9375L144.938,57.9375L144.938,56.6797L155.406,56.6797Q155.828,54.2188,155.906,51.4375L149.312,51.4375Q148.305,53.2656,147.047,54.9141Q146.391,54.4375,145.922,54.1797Q148.711,50.6641,150.047,46.5703L151.352,46.9609Q150.602,48.9297,149.93,50.2188L155.93,50.2188Q155.969,48.1719,156,45.4375L157.375,45.4375Q157.289,48.5781,157.195,50.2188L165.82,50.2188L165.82,51.4375L157.148,51.4375Q157.008,54.25,156.742,56.6797L167.109,56.6797L167.109,57.9375L157.055,57.9375Q158.883,64.2188,167.109,66.3516Q166.633,66.9531,166.281,67.625Q157.891,64.9922,156.117,58.6875Q154.68,64.75,145.781,67.9375ZM20.7656,111.938Q20.5703,111.703,20.1484,111.203Q19.3828,110.32,18.9844,109.906Q12.8203,110.062,5.15625,110.438Q4.11719,110.484,3.34375,110.656L2.66406,109.281Q3.75,108.859,4.60938,108.188Q7.35938,105.914,9.67188,103.438L0.867188,103.438L0.867188,102.258L11.3594,102.258L11.3594,97.9375L2.40625,97.9375L2.40625,96.7656L11.3594,96.7656L11.3594,92.1562Q10.8672,92.1797,9.85938,92.2109Q5.21875,92.4219,2.71094,92.5078Q2.64062,91.7969,2.45312,91.2266Q13.5625,90.9453,21.1406,90.4375L21.3906,91.6562Q17.1719,91.9219,12.625,92.1016L12.625,96.7656L21.5781,96.7656L21.5781,97.9375L12.625,97.9375L12.625,102.258L23.1328,102.258L23.1328,103.438L11.4766,103.438Q8.75781,106.266,5.22656,109.195Q5.71094,109.18,6.75,109.148Q13.5391,108.961,17.8828,108.828Q17.5547,108.5,16.8984,107.852Q15.3047,106.258,14.5469,105.531L15.5547,104.797Q18.6562,107.703,21.8672,111.031L20.7656,111.938ZM25.7812,111.938Q25.375,111.336,24.8438,110.727Q34.0234,107.711,35.1562,101.938L24.9375,101.938L24.9375,100.68L35.4062,100.68Q35.8281,98.2188,35.9062,95.4375L29.3125,95.4375Q28.3047,97.2656,27.0469,98.9141Q26.3906,98.4375,25.9219,98.1797Q28.7109,94.6641,30.0469,90.5703L31.3516,90.9609Q30.6016,92.9297,29.9297,94.2188L35.9297,94.2188Q35.9688,92.1719,36,89.4375L37.375,89.4375Q37.2891,92.5781,37.1953,94.2188L45.8203,94.2188L45.8203,95.4375L37.1484,95.4375Q37.0078,98.25,36.7422,100.68L47.1094,100.68L47.1094,101.938L37.0547,101.938Q38.8828,108.219,47.1094,110.352Q46.6328,110.953,46.2812,111.625Q37.8906,108.992,36.1172,102.688Q34.6797,108.75,25.7812,111.938ZM49.5625,91.7891L57.0469,91.7891L57.0469,109.977L55.8047,109.977L55.8047,107.938L50.8125,107.938L50.8125,110.273L49.5625,110.273L49.5625,91.7891ZM66.8203,89.4375L68.0859,89.4375L68.0859,94.7422L71.3359,94.7422L71.3359,95.9375L68.0859,95.9375L68.0859,108.359Q68.125,111.344,64.9922,111.391Q63.3047,111.438,61.5859,111.438Q61.4766,110.695,61.2812,110.039Q62.7578,110.109,64.6797,110.109Q65.8828,110.125,66.3438,109.648Q66.8359,109.203,66.8203,108.047L66.8203,95.9375L58.3984,95.9375L58.3984,94.7422L66.8203,94.7422L66.8203,89.4375ZM50.8125,100.438L50.8125,106.789L55.8047,106.789L55.8047,100.438L50.8125,100.438ZM50.8125,92.9375L50.8125,99.3125L55.8047,99.3125L55.8047,92.9375L50.8125,92.9375ZM62.0156,104.078Q60.625,101.43,59.4062,99.3516L60.4844,98.8438Q61.9922,101.297,63.1641,103.492L62.0156,104.078ZM79.2422,95.7656L88.6328,95.7656L88.6328,106.938L79.2422,106.938L79.2422,95.7656ZM81.2109,91.9375L81.2109,90.7422L94.2812,90.7422L94.2812,108.484Q94.2891,111.773,91.1484,111.844Q90.4688,111.852,89.7422,111.867Q89.3906,111.867,88.9688,111.867Q88.6094,111.867,87.8906,111.938Q87.8359,111.344,87.625,110.57Q89.1094,110.641,90.8438,110.641Q93.0625,110.695,93,108.438L93,91.9375L81.2109,91.9375ZM80.5,101.938L80.5,105.766L87.3906,105.766L87.3906,101.938L80.5,101.938ZM80.5,96.9375L80.5,100.773L87.3906,100.773L87.3906,96.9375L80.5,96.9375ZM73.8047,93.9844L75.0703,93.9844L75.0703,111.938L73.8047,111.938L73.8047,93.9844ZM75.0938,90.2734L76.1016,89.4375Q77.5938,90.8203,79.2188,92.4844L78.0938,93.4688Q76.4688,91.6406,75.0938,90.2734ZM101.992,97.9375Q101.555,97.9375,101.266,97.6406Q100.984,97.3359,100.984,96.9141Q100.984,96.4922,101.266,96.2188Q101.555,95.9375,101.992,95.9375Q102.422,95.9375,102.727,96.2188Q103.031,96.4922,103.031,96.9141Q103.031,97.3359,102.727,97.6406Q102.422,97.9375,101.992,97.9375ZM101.992,108.938Q101.555,108.938,101.266,108.648Q100.984,108.359,100.984,107.93Q100.984,107.492,101.266,107.219Q101.555,106.938,101.992,106.938Q102.422,106.938,102.727,107.219Q103.031,107.492,103.031,107.93Q103.031,108.359,102.727,108.648Q102.422,108.938,101.992,108.938ZM121.219,108.938L121.219,108.086Q121.219,107.227,121.352,106.547Q121.492,105.867,121.773,105.297Q122.062,104.719,122.484,104.211Q122.906,103.703,123.477,103.203Q124.047,102.695,124.758,102.164Q125.477,101.633,126.32,101.008Q127.141,100.414,127.852,99.8281Q128.57,99.2344,129.102,98.5625Q129.633,97.8906,129.945,97.0859Q130.258,96.2734,130.258,95.2188Q130.258,93.4297,129.258,92.4375Q128.266,91.4375,126.469,91.4375Q125.25,91.4375,124.125,91.9688Q123,92.4922,121.922,93.4375L121.922,92.1016Q122.969,91.3281,124.164,90.8828Q125.367,90.4375,126.672,90.4375Q127.758,90.4375,128.641,90.7656Q129.531,91.0938,130.156,91.6875Q130.781,92.2812,131.117,93.1328Q131.461,93.9844,131.461,95.0312Q131.461,96.2969,131.102,97.2734Q130.75,98.2422,130.125,99.0391Q129.508,99.8359,128.68,100.508Q127.852,101.172,126.93,101.844Q125.695,102.727,124.844,103.422Q124,104.117,123.469,104.781Q122.945,105.438,122.711,106.133Q122.477,106.82,122.477,107.742L122.477,107.938L131.5,107.938L131.5,108.938L121.219,108.938ZM140.031,108.938Q137.523,108.938,136.109,106.672Q134.695,104.398,134.695,100.07Q134.695,95.2891,136.18,92.8672Q137.664,90.4375,140.43,90.4375Q145.664,90.4375,145.664,99.6094Q145.664,104.172,144.18,106.555Q142.703,108.938,140.031,108.938ZM140.328,91.4375Q138.242,91.4375,137.07,93.5625Q135.906,95.6797,135.906,99.9219Q135.906,103.789,137.016,105.867Q138.133,107.938,140.188,107.938Q142.203,107.938,143.32,105.828Q144.438,103.711,144.438,99.7812Q144.438,91.4375,140.328,91.4375ZM148.219,108.938L148.219,108.086Q148.219,107.227,148.352,106.547Q148.492,105.867,148.773,105.297Q149.062,104.719,149.484,104.211Q149.906,103.703,150.477,103.203Q151.047,102.695,151.758,102.164Q152.477,101.633,153.32,101.008Q154.141,100.414,154.852,99.8281Q155.57,99.2344,156.102,98.5625Q156.633,97.8906,156.945,97.0859Q157.258,96.2734,157.258,95.2188Q157.258,93.4297,156.258,92.4375Q155.266,91.4375,153.469,91.4375Q152.25,91.4375,151.125,91.9688Q150,92.4922,148.922,93.4375L148.922,92.1016Q149.969,91.3281,151.164,90.8828Q152.367,90.4375,153.672,90.4375Q154.758,90.4375,155.641,90.7656Q156.531,91.0938,157.156,91.6875Q157.781,92.2812,158.117,93.1328Q158.461,93.9844,158.461,95.0312Q158.461,96.2969,158.102,97.2734Q157.75,98.2422,157.125,99.0391Q156.508,99.8359,155.68,100.508Q154.852,101.172,153.93,101.844Q152.695,102.727,151.844,103.422Q151,104.117,150.469,104.781Q149.945,105.438,149.711,106.133Q149.477,106.82,149.477,107.742L149.477,107.938L158.5,107.938L158.5,108.938L148.219,108.938ZM161.953,107.883L161.953,106.438Q164.031,107.938,165.867,107.938Q168.062,107.938,169.297,106.836Q170.531,105.734,170.531,103.961Q170.531,101.977,169.109,100.961Q167.688,99.9375,165.062,99.9375L163.664,99.9375L163.664,98.9375L164.906,98.9375Q167.336,98.9375,168.602,97.8984Q169.875,96.8594,169.875,94.9609Q169.875,93.3125,168.953,92.375Q168.039,91.4375,166.258,91.4375Q164.555,91.4375,162.68,92.4375L162.68,91.3359Q164.734,90.4375,166.445,90.4375Q168.586,90.4375,169.844,91.6016Q171.109,92.7578,171.109,94.6719Q171.109,98.3516,167.578,99.3438L167.578,99.3906Q169.477,99.5703,170.609,100.766Q171.75,101.961,171.75,103.781Q171.75,106.102,170.102,107.523Q168.461,108.938,165.844,108.938Q163.82,108.938,161.953,107.883ZM176.875,108.938Q176.438,108.938,176.148,108.648Q175.867,108.359,175.867,107.93Q175.867,107.492,176.148,107.219Q176.438,106.938,176.875,106.938Q177.305,106.938,177.609,107.219Q177.914,107.492,177.914,107.93Q177.914,108.359,177.609,108.648Q177.305,108.938,176.875,108.938ZM182.031,108.266L182.031,106.938Q183.781,107.938,185.5,107.938Q187.727,107.938,188.977,106.703Q190.234,105.469,190.234,103.406Q190.234,98.9375,185.188,98.9375Q184.047,98.9375,182.57,99.4375L183.117,90.9375L190.664,90.9375L190.664,91.9375L184.148,91.9375L183.742,98.0703Q185.039,97.9375,185.602,97.9375Q188.484,97.9375,189.961,99.3438Q191.438,100.75,191.438,103.258Q191.438,105.789,189.867,107.367Q188.297,108.938,185.391,108.938Q183.484,108.938,182.031,108.266ZM196.375,108.938Q195.938,108.938,195.648,108.648Q195.367,108.359,195.367,107.93Q195.367,107.492,195.648,107.219Q195.938,106.938,196.375,106.938Q196.805,106.938,197.109,107.219Q197.414,107.492,197.414,107.93Q197.414,108.359,197.109,108.648Q196.805,108.938,196.375,108.938ZM206.156,90.4375L206.156,108.938L205,108.938L205,92.3281Q204.117,93.2031,203,93.8281Q201.883,94.4531,200.555,94.9375L200.555,93.8438Q201.352,93.5703,202.031,93.2266Q202.711,92.875,203.336,92.4531Q203.969,92.0234,204.555,91.5234Q205.148,91.0234,205.758,90.4375L206.156,90.4375ZM215.031,108.938Q212.523,108.938,211.109,106.672Q209.695,104.398,209.695,100.07Q209.695,95.2891,211.18,92.8672Q212.664,90.4375,215.43,90.4375Q220.664,90.4375,220.664,99.6094Q220.664,104.172,219.18,106.555Q217.703,108.938,215.031,108.938ZM215.328,91.4375Q213.242,91.4375,212.07,93.5625Q210.906,95.6797,210.906,99.9219Q210.906,103.789,212.016,105.867Q213.133,107.938,215.188,107.938Q217.203,107.938,218.32,105.828Q219.438,103.711,219.438,99.7812Q219.438,91.4375,215.328,91.4375Z" fill="#3D3D3D" fill-opacity="1"/></g></svg>